<?xml version="1.0" encoding="UTF-8" standalone="no"?>
<!DOCTYPE svg PUBLIC "-//W3C//DTD SVG 1.1//EN"
 "http://www.w3.org/Graphics/SVG/1.1/DTD/svg11.dtd">
<!-- Generated by graphviz version 2.36.0 (20140111.2315)
 -->
<!-- Title: tmpStM_9e Pages: 1 -->
<svg width="2060pt" height="1092pt"
 viewBox="0.00 0.00 2059.93 1092.43" xmlns="http://www.w3.org/2000/svg" xmlns:xlink="http://www.w3.org/1999/xlink">
<g id="graph0" class="graph" transform="scale(1 1) rotate(0) translate(4 1088.43)">
<title>tmpStM_9e</title>
<polygon fill="white" stroke="none" points="-4,4 -4,-1088.43 2055.93,-1088.43 2055.93,4 -4,4"/>
<!-- 33669104 -->
<g id="node1" class="node"><title>33669104</title>
<path fill="none" stroke="black" d="M236.049,-204.049C236.049,-204.049 169.049,-204.049 169.049,-204.049 163.049,-204.049 157.049,-198.049 157.049,-192.049 157.049,-192.049 157.049,-163.049 157.049,-163.049 157.049,-157.049 163.049,-151.049 169.049,-151.049 169.049,-151.049 236.049,-151.049 236.049,-151.049 242.049,-151.049 248.049,-157.049 248.049,-163.049 248.049,-163.049 248.049,-192.049 248.049,-192.049 248.049,-198.049 242.049,-204.049 236.049,-204.049"/>
<text text-anchor="middle" x="202.549" y="-188.849" font-family="Times,serif" font-size="14.00">workspace &#45;&gt;</text>
<text text-anchor="middle" x="202.549" y="-173.849" font-family="Times,serif" font-size="14.00">goto_gtk_dir</text>
<text text-anchor="middle" x="202.549" y="-158.849" font-family="Times,serif" font-size="14.00">&#45;&gt; []</text>
</g>
<!-- 33667728 -->
<g id="node12" class="node"><title>33667728</title>
<path fill="none" stroke="black" d="M126.256,-371.359C126.256,-371.359 55.2564,-371.359 55.2564,-371.359 49.2564,-371.359 43.2564,-365.359 43.2564,-359.359 43.2564,-359.359 43.2564,-330.359 43.2564,-330.359 43.2564,-324.359 49.2564,-318.359 55.2564,-318.359 55.2564,-318.359 126.256,-318.359 126.256,-318.359 132.256,-318.359 138.256,-324.359 138.256,-330.359 138.256,-330.359 138.256,-359.359 138.256,-359.359 138.256,-365.359 132.256,-371.359 126.256,-371.359"/>
<text text-anchor="middle" x="90.7564" y="-356.159" font-family="Times,serif" font-size="14.00">workspace &#45;&gt;</text>
<text text-anchor="middle" x="90.7564" y="-341.159" font-family="Times,serif" font-size="14.00">build_gtk_app</text>
<text text-anchor="middle" x="90.7564" y="-326.159" font-family="Times,serif" font-size="14.00">&#45;&gt; []</text>
</g>
<!-- 33669104&#45;&gt;33667728 -->
<g id="edge11" class="edge"><title>33669104&#45;&gt;33667728</title>
<path fill="none" stroke="black" d="M184.835,-204.06C165.757,-232.612 135.313,-278.175 114.248,-309.702"/>
<polygon fill="black" stroke="black" points="111.218,-307.936 108.572,-318.196 117.038,-311.825 111.218,-307.936"/>
</g>
<!-- 33670544 -->
<g id="node2" class="node"><title>33670544</title>
<path fill="none" stroke="black" d="M1077.17,-766.069C1077.17,-766.069 1010.17,-766.069 1010.17,-766.069 1004.17,-766.069 998.171,-760.069 998.171,-754.069 998.171,-754.069 998.171,-725.069 998.171,-725.069 998.171,-719.069 1004.17,-713.069 1010.17,-713.069 1010.17,-713.069 1077.17,-713.069 1077.17,-713.069 1083.17,-713.069 1089.17,-719.069 1089.17,-725.069 1089.17,-725.069 1089.17,-754.069 1089.17,-754.069 1089.17,-760.069 1083.17,-766.069 1077.17,-766.069"/>
<text text-anchor="middle" x="1043.67" y="-750.869" font-family="Times,serif" font-size="14.00">workspace &#45;&gt;</text>
<text text-anchor="middle" x="1043.67" y="-735.869" font-family="Times,serif" font-size="14.00">goto_gtk_dir</text>
<text text-anchor="middle" x="1043.67" y="-720.869" font-family="Times,serif" font-size="14.00">&#45;&gt; []</text>
</g>
<!-- 33670912 -->
<g id="node13" class="node"><title>33670912</title>
<path fill="none" stroke="black" d="M963.379,-933.379C963.379,-933.379 900.379,-933.379 900.379,-933.379 894.379,-933.379 888.379,-927.379 888.379,-921.379 888.379,-921.379 888.379,-892.379 888.379,-892.379 888.379,-886.379 894.379,-880.379 900.379,-880.379 900.379,-880.379 963.379,-880.379 963.379,-880.379 969.379,-880.379 975.379,-886.379 975.379,-892.379 975.379,-892.379 975.379,-921.379 975.379,-921.379 975.379,-927.379 969.379,-933.379 963.379,-933.379"/>
<text text-anchor="middle" x="931.879" y="-918.179" font-family="Times,serif" font-size="14.00">[] &#45;&gt;</text>
<text text-anchor="middle" x="931.879" y="-903.179" font-family="Times,serif" font-size="14.00">set_java_env</text>
<text text-anchor="middle" x="931.879" y="-888.179" font-family="Times,serif" font-size="14.00">&#45;&gt; []</text>
</g>
<!-- 33670544&#45;&gt;33670912 -->
<g id="edge12" class="edge"><title>33670544&#45;&gt;33670912</title>
<path fill="none" stroke="black" d="M1025.96,-766.08C1006.88,-794.631 976.435,-840.195 955.37,-871.721"/>
<polygon fill="black" stroke="black" points="952.34,-869.956 949.694,-880.215 958.16,-873.845 952.34,-869.956"/>
</g>
<!-- 33672352 -->
<g id="node3" class="node"><title>33672352</title>
<path fill="none" stroke="black" d="M1077.67,-371.359C1077.67,-371.359 1009.67,-371.359 1009.67,-371.359 1003.67,-371.359 997.671,-365.359 997.671,-359.359 997.671,-359.359 997.671,-330.359 997.671,-330.359 997.671,-324.359 1003.67,-318.359 1009.67,-318.359 1009.67,-318.359 1077.67,-318.359 1077.67,-318.359 1083.67,-318.359 1089.67,-324.359 1089.67,-330.359 1089.67,-330.359 1089.67,-359.359 1089.67,-359.359 1089.67,-365.359 1083.67,-371.359 1077.67,-371.359"/>
<text text-anchor="middle" x="1043.67" y="-356.159" font-family="Times,serif" font-size="14.00">workspace &#45;&gt;</text>
<text text-anchor="middle" x="1043.67" y="-341.159" font-family="Times,serif" font-size="14.00">goto_web_dir</text>
<text text-anchor="middle" x="1043.67" y="-326.159" font-family="Times,serif" font-size="14.00">&#45;&gt; []</text>
</g>
<!-- 33672752 -->
<g id="node14" class="node"><title>33672752</title>
<path fill="none" stroke="black" d="M962.879,-204.049C962.879,-204.049 900.879,-204.049 900.879,-204.049 894.879,-204.049 888.879,-198.049 888.879,-192.049 888.879,-192.049 888.879,-163.049 888.879,-163.049 888.879,-157.049 894.879,-151.049 900.879,-151.049 900.879,-151.049 962.879,-151.049 962.879,-151.049 968.879,-151.049 974.879,-157.049 974.879,-163.049 974.879,-163.049 974.879,-192.049 974.879,-192.049 974.879,-198.049 968.879,-204.049 962.879,-204.049"/>
<text text-anchor="middle" x="931.879" y="-188.849" font-family="Times,serif" font-size="14.00">html_dir &#45;&gt;</text>
<text text-anchor="middle" x="931.879" y="-173.849" font-family="Times,serif" font-size="14.00">set_html_dir</text>
<text text-anchor="middle" x="931.879" y="-158.849" font-family="Times,serif" font-size="14.00">&#45;&gt; []</text>
</g>
<!-- 33672352&#45;&gt;33672752 -->
<g id="edge13" class="edge"><title>33672352&#45;&gt;33672752</title>
<path fill="none" stroke="black" d="M1025.96,-318.348C1006.88,-289.796 976.435,-244.232 955.37,-212.706"/>
<polygon fill="black" stroke="black" points="958.16,-210.582 949.694,-204.212 952.34,-214.471 958.16,-210.582"/>
</g>
<!-- process -->
<g id="node4" class="node"><title>process</title>
<text text-anchor="middle" x="1320.21" y="-359.514" font-family="Times,serif" font-size="14.00">/tmp/tmpStM_9e</text>
</g>
<!-- 33665856 -->
<g id="node5" class="node"><title>33665856</title>
<polygon fill="none" stroke="black" points="2051.93,-560.214 1997.93,-560.214 1997.93,-524.214 2051.93,-524.214 2051.93,-560.214"/>
<text text-anchor="middle" x="2024.93" y="-538.514" font-family="Times,serif" font-size="14.00">start</text>
</g>
<!-- 33666400 -->
<g id="node6" class="node"><title>33666400</title>
<path fill="none" stroke="black" d="M1913.93,-568.714C1913.93,-568.714 1846.93,-568.714 1846.93,-568.714 1840.93,-568.714 1834.93,-562.714 1834.93,-556.714 1834.93,-556.714 1834.93,-527.714 1834.93,-527.714 1834.93,-521.714 1840.93,-515.714 1846.93,-515.714 1846.93,-515.714 1913.93,-515.714 1913.93,-515.714 1919.93,-515.714 1925.93,-521.714 1925.93,-527.714 1925.93,-527.714 1925.93,-556.714 1925.93,-556.714 1925.93,-562.714 1919.93,-568.714 1913.93,-568.714"/>
<text text-anchor="middle" x="1880.43" y="-553.514" font-family="Times,serif" font-size="14.00">repository &#45;&gt;</text>
<text text-anchor="middle" x="1880.43" y="-538.514" font-family="Times,serif" font-size="14.00">checkout</text>
<text text-anchor="middle" x="1880.43" y="-523.514" font-family="Times,serif" font-size="14.00">&#45;&gt; workspace</text>
</g>
<!-- 33665856&#45;&gt;33666400 -->
<g id="edge1" class="edge"><title>33665856&#45;&gt;33666400</title>
<path fill="none" stroke="black" d="M1997.75,-542.214C1980.39,-542.214 1957.27,-542.214 1936.13,-542.214"/>
<polygon fill="black" stroke="black" points="1935.95,-538.714 1925.95,-542.214 1935.95,-545.714 1935.95,-538.714"/>
</g>
<!-- 33667008 -->
<g id="node7" class="node"><title>33667008</title>
<path fill="none" stroke="black" d="M1750.93,-568.714C1750.93,-568.714 1695.93,-568.714 1695.93,-568.714 1689.93,-568.714 1683.93,-562.714 1683.93,-556.714 1683.93,-556.714 1683.93,-527.714 1683.93,-527.714 1683.93,-521.714 1689.93,-515.714 1695.93,-515.714 1695.93,-515.714 1750.93,-515.714 1750.93,-515.714 1756.93,-515.714 1762.93,-521.714 1762.93,-527.714 1762.93,-527.714 1762.93,-556.714 1762.93,-556.714 1762.93,-562.714 1756.93,-568.714 1750.93,-568.714"/>
<text text-anchor="middle" x="1723.43" y="-553.514" font-family="Times,serif" font-size="14.00">[] &#45;&gt;</text>
<text text-anchor="middle" x="1723.43" y="-538.514" font-family="Times,serif" font-size="14.00">check_tcltk</text>
<text text-anchor="middle" x="1723.43" y="-523.514" font-family="Times,serif" font-size="14.00">&#45;&gt; []</text>
</g>
<!-- 33666400&#45;&gt;33667008 -->
<g id="edge2" class="edge"><title>33666400&#45;&gt;33667008</title>
<path fill="none" stroke="black" d="M1834.59,-542.214C1815.25,-542.214 1792.68,-542.214 1772.95,-542.214"/>
<polygon fill="black" stroke="black" points="1772.93,-538.714 1762.93,-542.214 1772.93,-545.714 1772.93,-538.714"/>
</g>
<!-- 33667376 -->
<g id="node8" class="node"><title>33667376</title>
<path fill="none" stroke="black" d="M1599.93,-568.714C1599.93,-568.714 1520.93,-568.714 1520.93,-568.714 1514.93,-568.714 1508.93,-562.714 1508.93,-556.714 1508.93,-556.714 1508.93,-527.714 1508.93,-527.714 1508.93,-521.714 1514.93,-515.714 1520.93,-515.714 1520.93,-515.714 1599.93,-515.714 1599.93,-515.714 1605.93,-515.714 1611.93,-521.714 1611.93,-527.714 1611.93,-527.714 1611.93,-556.714 1611.93,-556.714 1611.93,-562.714 1605.93,-568.714 1599.93,-568.714"/>
<text text-anchor="middle" x="1560.43" y="-553.514" font-family="Times,serif" font-size="14.00">workspace &#45;&gt;</text>
<text text-anchor="middle" x="1560.43" y="-538.514" font-family="Times,serif" font-size="14.00">goto_kernel_dir</text>
<text text-anchor="middle" x="1560.43" y="-523.514" font-family="Times,serif" font-size="14.00">&#45;&gt; []</text>
</g>
<!-- 33667008&#45;&gt;33667376 -->
<g id="edge3" class="edge"><title>33667008&#45;&gt;33667376</title>
<path fill="none" stroke="black" d="M1683.55,-542.214C1665.17,-542.214 1642.92,-542.214 1622.43,-542.214"/>
<polygon fill="black" stroke="black" points="1622.22,-538.714 1612.22,-542.214 1622.22,-545.714 1622.22,-538.714"/>
</g>
<!-- 33667872 -->
<g id="node9" class="node"><title>33667872</title>
<path fill="none" stroke="black" d="M1424.93,-568.714C1424.93,-568.714 1357.93,-568.714 1357.93,-568.714 1351.93,-568.714 1345.93,-562.714 1345.93,-556.714 1345.93,-556.714 1345.93,-527.714 1345.93,-527.714 1345.93,-521.714 1351.93,-515.714 1357.93,-515.714 1357.93,-515.714 1424.93,-515.714 1424.93,-515.714 1430.93,-515.714 1436.93,-521.714 1436.93,-527.714 1436.93,-527.714 1436.93,-556.714 1436.93,-556.714 1436.93,-562.714 1430.93,-568.714 1424.93,-568.714"/>
<text text-anchor="middle" x="1391.43" y="-553.514" font-family="Times,serif" font-size="14.00">workspace &#45;&gt;</text>
<text text-anchor="middle" x="1391.43" y="-538.514" font-family="Times,serif" font-size="14.00">build_kernel</text>
<text text-anchor="middle" x="1391.43" y="-523.514" font-family="Times,serif" font-size="14.00">&#45;&gt; []</text>
</g>
<!-- 33667376&#45;&gt;33667872 -->
<g id="edge4" class="edge"><title>33667376&#45;&gt;33667872</title>
<path fill="none" stroke="black" d="M1508.8,-542.214C1489.3,-542.214 1467.02,-542.214 1447.15,-542.214"/>
<polygon fill="black" stroke="black" points="1447.01,-538.714 1437.01,-542.214 1447.01,-545.714 1447.01,-538.714"/>
</g>
<!-- 33668256 -->
<g id="node10" class="node"><title>33668256</title>
<path fill="none" stroke="black" d="M1261.93,-568.714C1261.93,-568.714 1166.93,-568.714 1166.93,-568.714 1160.93,-568.714 1154.93,-562.714 1154.93,-556.714 1154.93,-556.714 1154.93,-527.714 1154.93,-527.714 1154.93,-521.714 1160.93,-515.714 1166.93,-515.714 1166.93,-515.714 1261.93,-515.714 1261.93,-515.714 1267.93,-515.714 1273.93,-521.714 1273.93,-527.714 1273.93,-527.714 1273.93,-556.714 1273.93,-556.714 1273.93,-562.714 1267.93,-568.714 1261.93,-568.714"/>
<text text-anchor="middle" x="1214.43" y="-553.514" font-family="Times,serif" font-size="14.00">[] &#45;&gt;</text>
<text text-anchor="middle" x="1214.43" y="-538.514" font-family="Times,serif" font-size="14.00">fix_kernel_failures</text>
<text text-anchor="middle" x="1214.43" y="-523.514" font-family="Times,serif" font-size="14.00">&#45;&gt; []</text>
</g>
<!-- 33667872&#45;&gt;33668256 -->
<g id="edge5" class="edge"><title>33667872&#45;&gt;33668256</title>
<path fill="none" stroke="black" d="M1345.85,-536.226C1327.1,-535.504 1304.96,-535.295 1284.25,-535.599"/>
<polygon fill="black" stroke="black" points="1284.15,-532.1 1274.21,-535.79 1284.28,-539.099 1284.15,-532.1"/>
</g>
<!-- 33668256&#45;&gt;33667872 -->
<g id="edge6" class="edge"><title>33668256&#45;&gt;33667872</title>
<path fill="none" stroke="black" d="M1274.35,-548.641C1294.16,-549.104 1316.11,-549.069 1335.6,-548.537"/>
<polygon fill="black" stroke="black" points="1335.96,-552.027 1345.84,-548.202 1335.73,-545.031 1335.96,-552.027"/>
</g>
<!-- 33668560 -->
<g id="node11" class="node"><title>33668560</title>
<polygon fill="lightgrey" stroke="black" points="1082.93,-560.214 1017.91,-542.214 1082.93,-524.214 1147.95,-542.214 1082.93,-560.214"/>
<text text-anchor="middle" x="1082.93" y="-538.514" font-family="Times,serif" font-size="14.00">33668560</text>
</g>
<!-- 33668256&#45;&gt;33668560 -->
<g id="edge7" class="edge"><title>33668256&#45;&gt;33668560</title>
<path fill="none" stroke="black" d="M1154.83,-542.214C1154.7,-542.214 1154.56,-542.214 1154.43,-542.214"/>
<polygon fill="black" stroke="black" points="1158.29,-538.714 1148.29,-542.214 1158.29,-545.714 1158.29,-538.714"/>
</g>
<!-- 33668560&#45;&gt;33669104 -->
<g id="edge8" class="edge"><title>33668560&#45;&gt;33669104</title>
<path fill="none" stroke="black" d="M1056.58,-531.3C934.986,-480.935 426.805,-270.439 257.613,-200.357"/>
<polygon fill="black" stroke="black" points="258.727,-197.03 248.148,-196.437 256.048,-203.497 258.727,-197.03"/>
</g>
<!-- 33668560&#45;&gt;33670544 -->
<g id="edge9" class="edge"><title>33668560&#45;&gt;33670544</title>
<path fill="none" stroke="black" d="M1079.51,-559.383C1073.17,-591.265 1059.45,-660.251 1050.94,-703.01"/>
<polygon fill="black" stroke="black" points="1047.47,-702.526 1048.95,-713.017 1054.34,-703.892 1047.47,-702.526"/>
</g>
<!-- 33668560&#45;&gt;33672352 -->
<g id="edge10" class="edge"><title>33668560&#45;&gt;33672352</title>
<path fill="none" stroke="black" d="M1079.51,-525.045C1073.17,-493.163 1059.45,-424.176 1050.94,-381.417"/>
<polygon fill="black" stroke="black" points="1054.34,-380.536 1048.95,-371.411 1047.47,-381.901 1054.34,-380.536"/>
</g>
<!-- 33669984 -->
<g id="node15" class="node"><title>33669984</title>
<path fill="none" stroke="black" d="M91,-568.714C91,-568.714 12,-568.714 12,-568.714 6,-568.714 -7.10543e-14,-562.714 -7.10543e-14,-556.714 -7.10543e-14,-556.714 -7.10543e-14,-527.714 -7.10543e-14,-527.714 -7.10543e-14,-521.714 6,-515.714 12,-515.714 12,-515.714 91,-515.714 91,-515.714 97,-515.714 103,-521.714 103,-527.714 103,-527.714 103,-556.714 103,-556.714 103,-562.714 97,-568.714 91,-568.714"/>
<text text-anchor="middle" x="51.5" y="-553.514" font-family="Times,serif" font-size="14.00">[] &#45;&gt;</text>
<text text-anchor="middle" x="51.5" y="-538.514" font-family="Times,serif" font-size="14.00">fix_gtk_failures</text>
<text text-anchor="middle" x="51.5" y="-523.514" font-family="Times,serif" font-size="14.00">&#45;&gt; []</text>
</g>
<!-- 33667728&#45;&gt;33669984 -->
<g id="edge14" class="edge"><title>33667728&#45;&gt;33669984</title>
<path fill="none" stroke="black" d="M80.4359,-371.766C71.1965,-406.275 59.0966,-466.278 53.4191,-505.107"/>
<polygon fill="black" stroke="black" points="49.8907,-505.074 51.9958,-515.458 56.8255,-506.028 49.8907,-505.074"/>
</g>
<!-- 33671440 -->
<g id="node19" class="node"><title>33671440</title>
<path fill="none" stroke="black" d="M802.569,-1045.17C802.569,-1045.17 726.569,-1045.17 726.569,-1045.17 720.569,-1045.17 714.569,-1039.17 714.569,-1033.17 714.569,-1033.17 714.569,-1004.17 714.569,-1004.17 714.569,-998.171 720.569,-992.171 726.569,-992.171 726.569,-992.171 802.569,-992.171 802.569,-992.171 808.569,-992.171 814.569,-998.171 814.569,-1004.17 814.569,-1004.17 814.569,-1033.17 814.569,-1033.17 814.569,-1039.17 808.569,-1045.17 802.569,-1045.17"/>
<text text-anchor="middle" x="764.569" y="-1029.97" font-family="Times,serif" font-size="14.00">workspace &#45;&gt;</text>
<text text-anchor="middle" x="764.569" y="-1014.97" font-family="Times,serif" font-size="14.00">build_java_app</text>
<text text-anchor="middle" x="764.569" y="-999.971" font-family="Times,serif" font-size="14.00">&#45;&gt; []</text>
</g>
<!-- 33670912&#45;&gt;33671440 -->
<g id="edge19" class="edge"><title>33670912&#45;&gt;33671440</title>
<path fill="none" stroke="black" d="M891.804,-933.656C868.109,-949.488 837.942,-969.645 812.93,-986.357"/>
<polygon fill="black" stroke="black" points="810.687,-983.647 804.317,-992.113 814.576,-989.467 810.687,-983.647"/>
</g>
<!-- 33669472 -->
<g id="node22" class="node"><title>33669472</title>
<path fill="none" stroke="black" d="M802.569,-92.2564C802.569,-92.2564 726.569,-92.2564 726.569,-92.2564 720.569,-92.2564 714.569,-86.2564 714.569,-80.2564 714.569,-80.2564 714.569,-51.2564 714.569,-51.2564 714.569,-45.2564 720.569,-39.2564 726.569,-39.2564 726.569,-39.2564 802.569,-39.2564 802.569,-39.2564 808.569,-39.2564 814.569,-45.2564 814.569,-51.2564 814.569,-51.2564 814.569,-80.2564 814.569,-80.2564 814.569,-86.2564 808.569,-92.2564 802.569,-92.2564"/>
<text text-anchor="middle" x="764.569" y="-77.0564" font-family="Times,serif" font-size="14.00">workspace &#45;&gt;</text>
<text text-anchor="middle" x="764.569" y="-62.0564" font-family="Times,serif" font-size="14.00">build_web_app</text>
<text text-anchor="middle" x="764.569" y="-47.0564" font-family="Times,serif" font-size="14.00">&#45;&gt; []</text>
</g>
<!-- 33672752&#45;&gt;33669472 -->
<g id="edge24" class="edge"><title>33672752&#45;&gt;33669472</title>
<path fill="none" stroke="black" d="M891.804,-150.772C868.109,-134.939 837.942,-114.783 812.93,-98.0701"/>
<polygon fill="black" stroke="black" points="814.576,-94.9606 804.317,-92.315 810.687,-100.781 814.576,-94.9606"/>
</g>
<!-- 33669984&#45;&gt;33667728 -->
<g id="edge15" class="edge"><title>33669984&#45;&gt;33667728</title>
<path fill="none" stroke="black" d="M61.8205,-515.307C71.0598,-480.798 83.1597,-420.795 88.8372,-381.966"/>
<polygon fill="black" stroke="black" points="92.3657,-381.998 90.2606,-371.615 85.4309,-381.045 92.3657,-381.998"/>
</g>
<!-- 33670256 -->
<g id="node16" class="node"><title>33670256</title>
<path fill="none" stroke="black" d="M124.256,-766.069C124.256,-766.069 57.2564,-766.069 57.2564,-766.069 51.2564,-766.069 45.2564,-760.069 45.2564,-754.069 45.2564,-754.069 45.2564,-725.069 45.2564,-725.069 45.2564,-719.069 51.2564,-713.069 57.2564,-713.069 57.2564,-713.069 124.256,-713.069 124.256,-713.069 130.256,-713.069 136.256,-719.069 136.256,-725.069 136.256,-725.069 136.256,-754.069 136.256,-754.069 136.256,-760.069 130.256,-766.069 124.256,-766.069"/>
<text text-anchor="middle" x="90.7564" y="-750.869" font-family="Times,serif" font-size="14.00">workspace &#45;&gt;</text>
<text text-anchor="middle" x="90.7564" y="-735.869" font-family="Times,serif" font-size="14.00">run_gtk_app</text>
<text text-anchor="middle" x="90.7564" y="-720.869" font-family="Times,serif" font-size="14.00">&#45;&gt; []</text>
</g>
<!-- 33669984&#45;&gt;33670256 -->
<g id="edge16" class="edge"><title>33669984&#45;&gt;33670256</title>
<path fill="none" stroke="black" d="M56.7943,-568.83C63.6912,-603.503 75.7799,-664.277 83.5195,-703.187"/>
<polygon fill="black" stroke="black" points="80.0997,-703.935 85.4834,-713.06 86.9652,-702.569 80.0997,-703.935"/>
</g>
<!-- 33668768 -->
<g id="node17" class="node"><title>33668768</title>
<polygon fill="lightgrey" stroke="black" points="202.549,-924.879 137.528,-906.879 202.549,-888.879 267.57,-906.879 202.549,-924.879"/>
<text text-anchor="middle" x="202.549" y="-903.179" font-family="Times,serif" font-size="14.00">33668768</text>
</g>
<!-- 33670256&#45;&gt;33668768 -->
<g id="edge17" class="edge"><title>33670256&#45;&gt;33668768</title>
<path fill="none" stroke="black" d="M108.47,-766.08C129.988,-798.283 165.967,-852.129 186.637,-883.064"/>
<polygon fill="black" stroke="black" points="183.816,-885.143 192.282,-891.513 189.637,-881.254 183.816,-885.143"/>
</g>
<!-- 33666096 -->
<g id="node18" class="node"><title>33666096</title>
<polygon fill="none" stroke="black" points="159.545,-994.882 105.545,-994.882 105.545,-958.882 159.545,-958.882 159.545,-994.882"/>
<text text-anchor="middle" x="132.545" y="-973.182" font-family="Times,serif" font-size="14.00">end</text>
</g>
<!-- 33668768&#45;&gt;33666096 -->
<g id="edge18" class="edge"><title>33668768&#45;&gt;33666096</title>
<path fill="none" stroke="black" d="M188.383,-921.045C179.638,-929.789 168.166,-941.261 157.896,-951.531"/>
<polygon fill="black" stroke="black" points="155.283,-949.195 150.687,-958.741 160.233,-954.144 155.283,-949.195"/>
</g>
<!-- 33671792 -->
<g id="node20" class="node"><title>33671792</title>
<path fill="none" stroke="black" d="M609.214,-1084.43C609.214,-1084.43 525.214,-1084.43 525.214,-1084.43 519.214,-1084.43 513.214,-1078.43 513.214,-1072.43 513.214,-1072.43 513.214,-1043.43 513.214,-1043.43 513.214,-1037.43 519.214,-1031.43 525.214,-1031.43 525.214,-1031.43 609.214,-1031.43 609.214,-1031.43 615.214,-1031.43 621.214,-1037.43 621.214,-1043.43 621.214,-1043.43 621.214,-1072.43 621.214,-1072.43 621.214,-1078.43 615.214,-1084.43 609.214,-1084.43"/>
<text text-anchor="middle" x="567.214" y="-1069.23" font-family="Times,serif" font-size="14.00">[] &#45;&gt;</text>
<text text-anchor="middle" x="567.214" y="-1054.23" font-family="Times,serif" font-size="14.00">fix_java_failures</text>
<text text-anchor="middle" x="567.214" y="-1039.23" font-family="Times,serif" font-size="14.00">&#45;&gt; []</text>
</g>
<!-- 33671440&#45;&gt;33671792 -->
<g id="edge20" class="edge"><title>33671440&#45;&gt;33671792</title>
<path fill="none" stroke="black" d="M714.375,-1022.61C689.195,-1026.7 658.412,-1032.66 631.52,-1038.61"/>
<polygon fill="black" stroke="black" points="630.408,-1035.27 621.423,-1040.89 631.948,-1042.1 630.408,-1035.27"/>
</g>
<!-- 33671792&#45;&gt;33671440 -->
<g id="edge21" class="edge"><title>33671792&#45;&gt;33671440</title>
<path fill="none" stroke="black" d="M621.283,-1053.35C647.06,-1049.07 677.98,-1043 704.489,-1037.05"/>
<polygon fill="black" stroke="black" points="705.448,-1040.42 714.413,-1034.77 703.884,-1033.59 705.448,-1040.42"/>
</g>
<!-- 33672064 -->
<g id="node21" class="node"><title>33672064</title>
<path fill="none" stroke="black" d="M403.359,-1045.17C403.359,-1045.17 336.359,-1045.17 336.359,-1045.17 330.359,-1045.17 324.359,-1039.17 324.359,-1033.17 324.359,-1033.17 324.359,-1004.17 324.359,-1004.17 324.359,-998.171 330.359,-992.171 336.359,-992.171 336.359,-992.171 403.359,-992.171 403.359,-992.171 409.359,-992.171 415.359,-998.171 415.359,-1004.17 415.359,-1004.17 415.359,-1033.17 415.359,-1033.17 415.359,-1039.17 409.359,-1045.17 403.359,-1045.17"/>
<text text-anchor="middle" x="369.859" y="-1029.97" font-family="Times,serif" font-size="14.00">workspace &#45;&gt;</text>
<text text-anchor="middle" x="369.859" y="-1014.97" font-family="Times,serif" font-size="14.00">run_java_app</text>
<text text-anchor="middle" x="369.859" y="-999.971" font-family="Times,serif" font-size="14.00">&#45;&gt; []</text>
</g>
<!-- 33671792&#45;&gt;33672064 -->
<g id="edge22" class="edge"><title>33671792&#45;&gt;33672064</title>
<path fill="none" stroke="black" d="M513.025,-1047.15C485.788,-1041.73 452.831,-1035.18 425.408,-1029.72"/>
<polygon fill="black" stroke="black" points="426.066,-1026.28 415.576,-1027.76 424.701,-1033.15 426.066,-1026.28"/>
</g>
<!-- 33672064&#45;&gt;33668768 -->
<g id="edge23" class="edge"><title>33672064&#45;&gt;33668768</title>
<path fill="none" stroke="black" d="M329.784,-991.894C299.037,-971.35 257.393,-943.524 230.254,-925.391"/>
<polygon fill="black" stroke="black" points="231.903,-922.283 221.644,-919.637 228.014,-928.103 231.903,-922.283"/>
</g>
<!-- 33673792 -->
<g id="node23" class="node"><title>33673792</title>
<path fill="none" stroke="black" d="M609.214,-53C609.214,-53 525.214,-53 525.214,-53 519.214,-53 513.214,-47 513.214,-41 513.214,-41 513.214,-12 513.214,-12 513.214,-6 519.214,7.4607e-14 525.214,7.4607e-14 525.214,7.4607e-14 609.214,7.4607e-14 609.214,7.4607e-14 615.214,7.4607e-14 621.214,-6 621.214,-12 621.214,-12 621.214,-41 621.214,-41 621.214,-47 615.214,-53 609.214,-53"/>
<text text-anchor="middle" x="567.214" y="-37.8" font-family="Times,serif" font-size="14.00">[] &#45;&gt;</text>
<text text-anchor="middle" x="567.214" y="-22.8" font-family="Times,serif" font-size="14.00">fix_web_failures</text>
<text text-anchor="middle" x="567.214" y="-7.8" font-family="Times,serif" font-size="14.00">&#45;&gt; []</text>
</g>
<!-- 33669472&#45;&gt;33673792 -->
<g id="edge25" class="edge"><title>33669472&#45;&gt;33673792</title>
<path fill="none" stroke="black" d="M714.403,-49.6543C689.253,-43.773 658.508,-37.542 631.633,-32.8437"/>
<polygon fill="black" stroke="black" points="631.989,-29.3538 621.542,-31.122 630.811,-36.2541 631.989,-29.3538"/>
</g>
<!-- 33673792&#45;&gt;33669472 -->
<g id="edge26" class="edge"><title>33673792&#45;&gt;33669472</title>
<path fill="none" stroke="black" d="M621.254,-43.5009C646.986,-49.4215 677.847,-55.5971 704.331,-60.1367"/>
<polygon fill="black" stroke="black" points="703.807,-63.5976 714.247,-61.7925 704.96,-56.6932 703.807,-63.5976"/>
</g>
<!-- 33674064 -->
<g id="node24" class="node"><title>33674064</title>
<path fill="none" stroke="black" d="M402.859,-92.2564C402.859,-92.2564 336.859,-92.2564 336.859,-92.2564 330.859,-92.2564 324.859,-86.2564 324.859,-80.2564 324.859,-80.2564 324.859,-51.2564 324.859,-51.2564 324.859,-45.2564 330.859,-39.2564 336.859,-39.2564 336.859,-39.2564 402.859,-39.2564 402.859,-39.2564 408.859,-39.2564 414.859,-45.2564 414.859,-51.2564 414.859,-51.2564 414.859,-80.2564 414.859,-80.2564 414.859,-86.2564 408.859,-92.2564 402.859,-92.2564"/>
<text text-anchor="middle" x="369.859" y="-77.0564" font-family="Times,serif" font-size="14.00">peos_url &#45;&gt;</text>
<text text-anchor="middle" x="369.859" y="-62.0564" font-family="Times,serif" font-size="14.00">run_web_app</text>
<text text-anchor="middle" x="369.859" y="-47.0564" font-family="Times,serif" font-size="14.00">&#45;&gt; []</text>
</g>
<!-- 33673792&#45;&gt;33674064 -->
<g id="edge27" class="edge"><title>33673792&#45;&gt;33674064</title>
<path fill="none" stroke="black" d="M513.025,-37.2789C485.584,-42.7371 452.339,-49.35 424.795,-54.8289"/>
<polygon fill="black" stroke="black" points="424.051,-51.4082 414.926,-56.7919 425.417,-58.2737 424.051,-51.4082"/>
</g>
<!-- 33674064&#45;&gt;33668768 -->
<g id="edge28" class="edge"><title>33674064&#45;&gt;33668768</title>
<path fill="none" stroke="black" d="M364.575,-92.3187C339.586,-217.948 233.413,-751.714 208.021,-879.37"/>
<polygon fill="black" stroke="black" points="204.529,-878.987 206.01,-889.477 211.394,-880.352 204.529,-878.987"/>
</g>
</g>
</svg>
