<?xml version="1.0" encoding="UTF-8" standalone="no"?>
<!DOCTYPE svg PUBLIC "-//W3C//DTD SVG 1.1//EN"
 "http://www.w3.org/Graphics/SVG/1.1/DTD/svg11.dtd">
<!-- Generated by graphviz version 2.36.0 (20140111.2315)
 -->
<!-- Title: tmpA0Arnq Pages: 1 -->
<svg width="6199pt" height="6597pt"
 viewBox="0.00 0.00 6198.58 6596.70" xmlns="http://www.w3.org/2000/svg" xmlns:xlink="http://www.w3.org/1999/xlink">
<g id="graph0" class="graph" transform="scale(1 1) rotate(0) translate(4 6592.7)">
<title>tmpA0Arnq</title>
<polygon fill="white" stroke="none" points="-4,4 -4,-6592.7 6194.58,-6592.7 6194.58,4 -4,4"/>
<!-- 37064208 -->
<g id="node1" class="node"><title>37064208</title>
<path fill="none" stroke="black" d="M5181.72,-854.848C5181.72,-854.848 5004.72,-854.848 5004.72,-854.848 4998.72,-854.848 4992.72,-848.848 4992.72,-842.848 4992.72,-842.848 4992.72,-813.848 4992.72,-813.848 4992.72,-807.848 4998.72,-801.848 5004.72,-801.848 5004.72,-801.848 5181.72,-801.848 5181.72,-801.848 5187.72,-801.848 5193.72,-807.848 5193.72,-813.848 5193.72,-813.848 5193.72,-842.848 5193.72,-842.848 5193.72,-848.848 5187.72,-854.848 5181.72,-854.848"/>
<text text-anchor="middle" x="5093.22" y="-839.648" font-family="Times,serif" font-size="14.00">NetBeansVisionStatement &#45;&gt;</text>
<text text-anchor="middle" x="5093.22" y="-824.648" font-family="Times,serif" font-size="14.00">ReviewNetBeansVisionStatmenet</text>
<text text-anchor="middle" x="5093.22" y="-809.648" font-family="Times,serif" font-size="14.00">&#45;&gt; []</text>
</g>
<!-- 37063888 -->
<g id="node9" class="node"><title>37063888</title>
<ellipse fill="lightgrey" stroke="black" cx="5093.22" cy="-1186.64" rx="18" ry="18"/>
<text text-anchor="middle" x="5093.22" y="-1182.94" font-family="Times,serif" font-size="14.00">37063888</text>
</g>
<!-- 37064208&#45;&gt;37063888 -->
<g id="edge7" class="edge"><title>37064208&#45;&gt;37063888</title>
<path fill="none" stroke="black" d="M5093.22,-854.985C5093.22,-920.737 5093.22,-1090.32 5093.22,-1158.06"/>
<polygon fill="black" stroke="black" points="5089.72,-1158.39 5093.22,-1168.39 5096.72,-1158.39 5089.72,-1158.39"/>
</g>
<!-- 37064976 -->
<g id="node2" class="node"><title>37064976</title>
<path fill="none" stroke="black" d="M5577.48,-1323.86C5577.48,-1323.86 5290.48,-1323.86 5290.48,-1323.86 5284.48,-1323.86 5278.48,-1317.86 5278.48,-1311.86 5278.48,-1311.86 5278.48,-1282.86 5278.48,-1282.86 5278.48,-1276.86 5284.48,-1270.86 5290.48,-1270.86 5290.48,-1270.86 5577.48,-1270.86 5577.48,-1270.86 5583.48,-1270.86 5589.48,-1276.86 5589.48,-1282.86 5589.48,-1282.86 5589.48,-1311.86 5589.48,-1311.86 5589.48,-1317.86 5583.48,-1323.86 5577.48,-1323.86"/>
<text text-anchor="middle" x="5433.98" y="-1308.66" font-family="Times,serif" font-size="14.00">PreviousVersionReleaseDocuments &#45;&gt;</text>
<text text-anchor="middle" x="5433.98" y="-1293.66" font-family="Times,serif" font-size="14.00">ReviewUncompletedMilestonesFromPreviousRelease</text>
<text text-anchor="middle" x="5433.98" y="-1278.66" font-family="Times,serif" font-size="14.00">&#45;&gt; ProspectiveFeaturesForUpcomingRelease</text>
</g>
<!-- 37064976&#45;&gt;37063888 -->
<g id="edge8" class="edge"><title>37064976&#45;&gt;37063888</title>
<path fill="none" stroke="black" d="M5352.36,-1270.84C5276.99,-1246.35 5169.48,-1211.42 5120.01,-1195.34"/>
<polygon fill="black" stroke="black" points="5120.96,-1191.97 5110.37,-1192.21 5118.79,-1198.63 5120.96,-1191.97"/>
</g>
<!-- 37065712 -->
<g id="node3" class="node"><title>37065712</title>
<path fill="none" stroke="black" d="M5551.98,-744.129C5551.98,-744.129 5315.98,-744.129 5315.98,-744.129 5309.98,-744.129 5303.98,-738.129 5303.98,-732.129 5303.98,-732.129 5303.98,-703.129 5303.98,-703.129 5303.98,-697.129 5309.98,-691.129 5315.98,-691.129 5315.98,-691.129 5551.98,-691.129 5551.98,-691.129 5557.98,-691.129 5563.98,-697.129 5563.98,-703.129 5563.98,-703.129 5563.98,-732.129 5563.98,-732.129 5563.98,-738.129 5557.98,-744.129 5551.98,-744.129"/>
<text text-anchor="middle" x="5433.98" y="-728.929" font-family="Times,serif" font-size="14.00">IssuzillaIssueRepository &#45;&gt;</text>
<text text-anchor="middle" x="5433.98" y="-713.929" font-family="Times,serif" font-size="14.00">ReviewIssuzillaFeatureRequests</text>
<text text-anchor="middle" x="5433.98" y="-698.929" font-family="Times,serif" font-size="14.00">&#45;&gt; ProspectiveFeaturesForUpcomingRelease</text>
</g>
<!-- 37065712&#45;&gt;37063888 -->
<g id="edge9" class="edge"><title>37065712&#45;&gt;37063888</title>
<path fill="none" stroke="black" d="M5414.68,-744.189C5353.95,-827.782 5167.36,-1084.59 5110.11,-1163.4"/>
<polygon fill="black" stroke="black" points="5107.12,-1161.55 5104.08,-1171.7 5112.79,-1165.67 5107.12,-1161.55"/>
</g>
<!-- process -->
<g id="node4" class="node"><title>process</title>
<text text-anchor="middle" x="3464.79" y="-3910.79" font-family="Times,serif" font-size="14.00">/tmp/tmpA0Arnq</text>
</g>
<!-- 37061440 -->
<g id="node5" class="node"><title>37061440</title>
<polygon fill="none" stroke="black" points="6190.58,-1025.49 6136.58,-1025.49 6136.58,-989.494 6190.58,-989.494 6190.58,-1025.49"/>
<text text-anchor="middle" x="6163.58" y="-1003.79" font-family="Times,serif" font-size="14.00">start</text>
</g>
<!-- 37062064 -->
<g id="node6" class="node"><title>37062064</title>
<path fill="none" stroke="black" d="M6052.58,-1033.99C6052.58,-1033.99 5938.58,-1033.99 5938.58,-1033.99 5932.58,-1033.99 5926.58,-1027.99 5926.58,-1021.99 5926.58,-1021.99 5926.58,-992.994 5926.58,-992.994 5926.58,-986.994 5932.58,-980.994 5938.58,-980.994 5938.58,-980.994 6052.58,-980.994 6052.58,-980.994 6058.58,-980.994 6064.58,-986.994 6064.58,-992.994 6064.58,-992.994 6064.58,-1021.99 6064.58,-1021.99 6064.58,-1027.99 6058.58,-1033.99 6052.58,-1033.99"/>
<text text-anchor="middle" x="5995.58" y="-1018.79" font-family="Times,serif" font-size="14.00">NetBeansRoadmap &#45;&gt;</text>
<text text-anchor="middle" x="5995.58" y="-1003.79" font-family="Times,serif" font-size="14.00">ReviewNetBeans</text>
<text text-anchor="middle" x="5995.58" y="-988.794" font-family="Times,serif" font-size="14.00">&#45;&gt; []</text>
</g>
<!-- 37061440&#45;&gt;37062064 -->
<g id="edge1" class="edge"><title>37061440&#45;&gt;37062064</title>
<path fill="none" stroke="black" d="M6136.21,-1007.49C6119.36,-1007.49 6096.82,-1007.49 6074.72,-1007.49"/>
<polygon fill="black" stroke="black" points="6074.62,-1003.99 6064.62,-1007.49 6074.62,-1010.99 6074.62,-1003.99"/>
</g>
<!-- 37062976 -->
<g id="node7" class="node"><title>37062976</title>
<path fill="none" stroke="black" d="M5842.58,-1033.99C5842.58,-1033.99 5728.58,-1033.99 5728.58,-1033.99 5722.58,-1033.99 5716.58,-1027.99 5716.58,-1021.99 5716.58,-1021.99 5716.58,-992.994 5716.58,-992.994 5716.58,-986.994 5722.58,-980.994 5728.58,-980.994 5728.58,-980.994 5842.58,-980.994 5842.58,-980.994 5848.58,-980.994 5854.58,-986.994 5854.58,-992.994 5854.58,-992.994 5854.58,-1021.99 5854.58,-1021.99 5854.58,-1027.99 5848.58,-1033.99 5842.58,-1033.99"/>
<text text-anchor="middle" x="5785.58" y="-1018.79" font-family="Times,serif" font-size="14.00">NetBeansRoadmap &#45;&gt;</text>
<text text-anchor="middle" x="5785.58" y="-1003.79" font-family="Times,serif" font-size="14.00">SetReleaseDate</text>
<text text-anchor="middle" x="5785.58" y="-988.794" font-family="Times,serif" font-size="14.00">&#45;&gt; ReleaseDate</text>
</g>
<!-- 37062064&#45;&gt;37062976 -->
<g id="edge2" class="edge"><title>37062064&#45;&gt;37062976</title>
<path fill="none" stroke="black" d="M5926.52,-1007.49C5906.79,-1007.49 5885.12,-1007.49 5864.82,-1007.49"/>
<polygon fill="black" stroke="black" points="5864.67,-1003.99 5854.67,-1007.49 5864.67,-1010.99 5864.67,-1003.99"/>
</g>
<!-- 37063648 -->
<g id="node8" class="node"><title>37063648</title>
<ellipse fill="lightgrey" stroke="black" cx="5644.58" cy="-1007.49" rx="18" ry="18"/>
<text text-anchor="middle" x="5644.58" y="-1003.79" font-family="Times,serif" font-size="14.00">37063648</text>
</g>
<!-- 37062976&#45;&gt;37063648 -->
<g id="edge3" class="edge"><title>37062976&#45;&gt;37063648</title>
<path fill="none" stroke="black" d="M5716.32,-1007.49C5701.02,-1007.49 5685.64,-1007.49 5673.07,-1007.49"/>
<polygon fill="black" stroke="black" points="5672.82,-1003.99 5662.82,-1007.49 5672.82,-1010.99 5672.82,-1003.99"/>
</g>
<!-- 37063648&#45;&gt;37064208 -->
<g id="edge4" class="edge"><title>37063648&#45;&gt;37064208</title>
<path fill="none" stroke="black" d="M5627.16,-1001.84C5560.56,-980.194 5318.91,-901.68 5184.69,-858.067"/>
<polygon fill="black" stroke="black" points="5185.41,-854.622 5174.82,-854.86 5183.25,-861.279 5185.41,-854.622"/>
</g>
<!-- 37063648&#45;&gt;37064976 -->
<g id="edge5" class="edge"><title>37063648&#45;&gt;37064976</title>
<path fill="none" stroke="black" d="M5633.84,-1022.27C5601.68,-1066.54 5505.44,-1199 5459.25,-1262.57"/>
<polygon fill="black" stroke="black" points="5456.39,-1260.55 5453.35,-1270.7 5462.06,-1264.67 5456.39,-1260.55"/>
</g>
<!-- 37063648&#45;&gt;37065712 -->
<g id="edge6" class="edge"><title>37063648&#45;&gt;37065712</title>
<path fill="none" stroke="black" d="M5633.84,-992.721C5601.68,-948.446 5505.44,-815.99 5459.25,-752.42"/>
<polygon fill="black" stroke="black" points="5462.06,-750.322 5453.35,-744.289 5456.39,-754.436 5462.06,-750.322"/>
</g>
<!-- 37066496 -->
<g id="node10" class="node"><title>37066496</title>
<path fill="none" stroke="black" d="M524,-5754.25C524,-5754.25 12,-5754.25 12,-5754.25 6,-5754.25 -5.68434e-14,-5748.25 -5.68434e-14,-5742.25 -5.68434e-14,-5742.25 -5.68434e-14,-5713.25 -5.68434e-14,-5713.25 -5.68434e-14,-5707.25 6,-5701.25 12,-5701.25 12,-5701.25 524,-5701.25 524,-5701.25 530,-5701.25 536,-5707.25 536,-5713.25 536,-5713.25 536,-5742.25 536,-5742.25 536,-5748.25 530,-5754.25 524,-5754.25"/>
<text text-anchor="middle" x="268" y="-5739.05" font-family="Times,serif" font-size="14.00">ProspectiveFeaturesGatheredFromIssuezilla &amp;&amp; ProspectiveFeaturesFromPreviousReleases &#45;&gt;</text>
<text text-anchor="middle" x="268" y="-5724.05" font-family="Times,serif" font-size="14.00">CompileListOfPossibleFeaturesToInclude</text>
<text text-anchor="middle" x="268" y="-5709.05" font-family="Times,serif" font-size="14.00">&#45;&gt; FeatureSetForUpcomingRelease</text>
</g>
<!-- 37063888&#45;&gt;37066496 -->
<g id="edge10" class="edge"><title>37063888&#45;&gt;37066496</title>
<path fill="none" stroke="black" d="M5079.8,-1199.27C4815.48,-1448.03 729.707,-5293.23 303.814,-5694.04"/>
<polygon fill="black" stroke="black" points="301.267,-5691.63 296.384,-5701.04 306.065,-5696.73 301.267,-5691.63"/>
</g>
<!-- 37064512 -->
<g id="node11" class="node"><title>37064512</title>
<path fill="none" stroke="black" d="M267.926,-6312.47C267.926,-6312.47 49.9258,-6312.47 49.9258,-6312.47 43.9258,-6312.47 37.9258,-6306.47 37.9258,-6300.47 37.9258,-6300.47 37.9258,-6271.47 37.9258,-6271.47 37.9258,-6265.47 43.9258,-6259.47 49.9258,-6259.47 49.9258,-6259.47 267.926,-6259.47 267.926,-6259.47 273.926,-6259.47 279.926,-6265.47 279.926,-6271.47 279.926,-6271.47 279.926,-6300.47 279.926,-6300.47 279.926,-6306.47 273.926,-6312.47 267.926,-6312.47"/>
<text text-anchor="middle" x="158.926" y="-6297.27" font-family="Times,serif" font-size="14.00">FeatureSetForUpcomingRelease &#45;&gt;</text>
<text text-anchor="middle" x="158.926" y="-6282.27" font-family="Times,serif" font-size="14.00">CategorizeFeaturesProposedFeatureSet</text>
<text text-anchor="middle" x="158.926" y="-6267.27" font-family="Times,serif" font-size="14.00">&#45;&gt; WeightedListOfFeaturesToImplement</text>
</g>
<!-- 37066496&#45;&gt;37064512 -->
<g id="edge11" class="edge"><title>37066496&#45;&gt;37064512</title>
<path fill="none" stroke="black" d="M262.813,-5754.3C245.048,-5845.21 186.63,-6144.18 166.121,-6249.15"/>
<polygon fill="black" stroke="black" points="162.628,-6248.77 164.145,-6259.26 169.498,-6250.11 162.628,-6248.77"/>
</g>
<!-- 37067920 -->
<g id="node12" class="node"><title>37067920</title>
<path fill="none" stroke="black" d="M765.62,-6588.7C765.62,-6588.7 546.62,-6588.7 546.62,-6588.7 540.62,-6588.7 534.62,-6582.7 534.62,-6576.7 534.62,-6576.7 534.62,-6547.7 534.62,-6547.7 534.62,-6541.7 540.62,-6535.7 546.62,-6535.7 546.62,-6535.7 765.62,-6535.7 765.62,-6535.7 771.62,-6535.7 777.62,-6541.7 777.62,-6547.7 777.62,-6547.7 777.62,-6576.7 777.62,-6576.7 777.62,-6582.7 771.62,-6588.7 765.62,-6588.7"/>
<text text-anchor="middle" x="656.12" y="-6573.5" font-family="Times,serif" font-size="14.00">WeightedListOfFeaturesToImplement &#45;&gt;</text>
<text text-anchor="middle" x="656.12" y="-6558.5" font-family="Times,serif" font-size="14.00">SendMessageToCommunityForFeedback</text>
<text text-anchor="middle" x="656.12" y="-6543.5" font-family="Times,serif" font-size="14.00">&#45;&gt; []</text>
</g>
<!-- 37064512&#45;&gt;37067920 -->
<g id="edge12" class="edge"><title>37064512&#45;&gt;37067920</title>
<path fill="none" stroke="black" d="M207.051,-6312.71C299.336,-6363.98 500.76,-6475.89 599.402,-6530.69"/>
<polygon fill="black" stroke="black" points="597.892,-6533.86 608.333,-6535.65 601.292,-6527.74 597.892,-6533.86"/>
</g>
<!-- 37068336 -->
<g id="node13" class="node"><title>37068336</title>
<path fill="none" stroke="black" d="M1195.48,-6201.21C1195.48,-6201.21 949.477,-6201.21 949.477,-6201.21 943.477,-6201.21 937.477,-6195.21 937.477,-6189.21 937.477,-6189.21 937.477,-6160.21 937.477,-6160.21 937.477,-6154.21 943.477,-6148.21 949.477,-6148.21 949.477,-6148.21 1195.48,-6148.21 1195.48,-6148.21 1201.48,-6148.21 1207.48,-6154.21 1207.48,-6160.21 1207.48,-6160.21 1207.48,-6189.21 1207.48,-6189.21 1207.48,-6195.21 1201.48,-6201.21 1195.48,-6201.21"/>
<text text-anchor="middle" x="1072.48" y="-6186.01" font-family="Times,serif" font-size="14.00">FeebackMessagesOnMail &#45;&gt;</text>
<text text-anchor="middle" x="1072.48" y="-6171.01" font-family="Times,serif" font-size="14.00">ReviewFeedbackFromCommunity</text>
<text text-anchor="middle" x="1072.48" y="-6156.01" font-family="Times,serif" font-size="14.00">&#45;&gt; PotentialRevisionsToDevelopmentProposal</text>
</g>
<!-- 37067920&#45;&gt;37068336 -->
<g id="edge13" class="edge"><title>37067920&#45;&gt;37068336</title>
<path fill="none" stroke="black" d="M684.738,-6535.57C758.512,-6466.91 955.059,-6283.99 1036.43,-6208.26"/>
<polygon fill="black" stroke="black" points="1039,-6210.65 1043.93,-6201.27 1034.23,-6205.52 1039,-6210.65"/>
</g>
<!-- 37068848 -->
<g id="node14" class="node"><title>37068848</title>
<path fill="none" stroke="black" d="M955.605,-5685.48C955.605,-5685.48 709.605,-5685.48 709.605,-5685.48 703.605,-5685.48 697.605,-5679.48 697.605,-5673.48 697.605,-5673.48 697.605,-5644.48 697.605,-5644.48 697.605,-5638.48 703.605,-5632.48 709.605,-5632.48 709.605,-5632.48 955.605,-5632.48 955.605,-5632.48 961.605,-5632.48 967.605,-5638.48 967.605,-5644.48 967.605,-5644.48 967.605,-5673.48 967.605,-5673.48 967.605,-5679.48 961.605,-5685.48 955.605,-5685.48"/>
<text text-anchor="middle" x="832.605" y="-5670.28" font-family="Times,serif" font-size="14.00">PotentialRevisionsToDevelopmentProposal &#45;&gt;</text>
<text text-anchor="middle" x="832.605" y="-5655.28" font-family="Times,serif" font-size="14.00">ReviseProposalBasedOnFeedback</text>
<text text-anchor="middle" x="832.605" y="-5640.28" font-family="Times,serif" font-size="14.00">&#45;&gt; RevisedDevelopmentProposal</text>
</g>
<!-- 37068336&#45;&gt;37068848 -->
<g id="edge14" class="edge"><title>37068336&#45;&gt;37068848</title>
<path fill="none" stroke="black" d="M1060.09,-6148.06C1020.16,-6062.23 894.861,-5792.83 849.342,-5694.97"/>
<polygon fill="black" stroke="black" points="852.458,-5693.37 845.067,-5685.78 846.111,-5696.32 852.458,-5693.37"/>
</g>
<!-- 37068848&#45;&gt;37066496 -->
<g id="edge15" class="edge"><title>37068848&#45;&gt;37066496</title>
<path fill="none" stroke="black" d="M697.368,-5675.45C636.967,-5682.81 564.104,-5691.69 495.691,-5700.02"/>
<polygon fill="black" stroke="black" points="495.135,-5696.56 485.631,-5701.24 495.981,-5703.51 495.135,-5696.56"/>
</g>
<!-- 37069344 -->
<g id="node15" class="node"><title>37069344</title>
<path fill="none" stroke="black" d="M1079.17,-5490.99C1079.17,-5490.99 802.166,-5490.99 802.166,-5490.99 796.166,-5490.99 790.166,-5484.99 790.166,-5478.99 790.166,-5478.99 790.166,-5449.99 790.166,-5449.99 790.166,-5443.99 796.166,-5437.99 802.166,-5437.99 802.166,-5437.99 1079.17,-5437.99 1079.17,-5437.99 1085.17,-5437.99 1091.17,-5443.99 1091.17,-5449.99 1091.17,-5449.99 1091.17,-5478.99 1091.17,-5478.99 1091.17,-5484.99 1085.17,-5490.99 1079.17,-5490.99"/>
<text text-anchor="middle" x="940.666" y="-5475.79" font-family="Times,serif" font-size="14.00">RevisedDevelopmentProposal &#45;&gt;</text>
<text text-anchor="middle" x="940.666" y="-5460.79" font-family="Times,serif" font-size="14.00">PostFinalDevelopmentProposalToNetBeansWebsite</text>
<text text-anchor="middle" x="940.666" y="-5445.79" font-family="Times,serif" font-size="14.00">&#45;&gt; FinalDevelopmentProposal</text>
</g>
<!-- 37068848&#45;&gt;37069344 -->
<g id="edge16" class="edge"><title>37068848&#45;&gt;37069344</title>
<path fill="none" stroke="black" d="M847.404,-5632.35C866.428,-5598.11 899.529,-5538.53 920.75,-5500.33"/>
<polygon fill="black" stroke="black" points="924.076,-5501.55 925.873,-5491.11 917.957,-5498.15 924.076,-5501.55"/>
</g>
<!-- 37069936 -->
<g id="node16" class="node"><title>37069936</title>
<path fill="none" stroke="black" d="M1246.21,-5173.24C1246.21,-5173.24 988.205,-5173.24 988.205,-5173.24 982.205,-5173.24 976.205,-5167.24 976.205,-5161.24 976.205,-5161.24 976.205,-5132.24 976.205,-5132.24 976.205,-5126.24 982.205,-5120.24 988.205,-5120.24 988.205,-5120.24 1246.21,-5120.24 1246.21,-5120.24 1252.21,-5120.24 1258.21,-5126.24 1258.21,-5132.24 1258.21,-5132.24 1258.21,-5161.24 1258.21,-5161.24 1258.21,-5167.24 1252.21,-5173.24 1246.21,-5173.24"/>
<text text-anchor="middle" x="1117.21" y="-5158.04" font-family="Times,serif" font-size="14.00">RevisedDevelopmentProposal &#45;&gt;</text>
<text text-anchor="middle" x="1117.21" y="-5143.04" font-family="Times,serif" font-size="14.00">AssignDevelopersToCompleteProjectMilestones</text>
<text text-anchor="middle" x="1117.21" y="-5128.04" font-family="Times,serif" font-size="14.00">&#45;&gt; []</text>
</g>
<!-- 37069344&#45;&gt;37069936 -->
<g id="edge17" class="edge"><title>37069344&#45;&gt;37069936</title>
<path fill="none" stroke="black" d="M955.414,-5437.94C987.087,-5380.93 1061.63,-5246.76 1097.39,-5182.4"/>
<polygon fill="black" stroke="black" points="1100.58,-5183.87 1102.38,-5173.43 1094.46,-5180.47 1100.58,-5183.87"/>
</g>
<!-- 37070320 -->
<g id="node17" class="node"><title>37070320</title>
<path fill="none" stroke="black" d="M1309.68,-4927.6C1309.68,-4927.6 1197.68,-4927.6 1197.68,-4927.6 1191.68,-4927.6 1185.68,-4921.6 1185.68,-4915.6 1185.68,-4915.6 1185.68,-4886.6 1185.68,-4886.6 1185.68,-4880.6 1191.68,-4874.6 1197.68,-4874.6 1197.68,-4874.6 1309.68,-4874.6 1309.68,-4874.6 1315.68,-4874.6 1321.68,-4880.6 1321.68,-4886.6 1321.68,-4886.6 1321.68,-4915.6 1321.68,-4915.6 1321.68,-4921.6 1315.68,-4927.6 1309.68,-4927.6"/>
<text text-anchor="middle" x="1253.68" y="-4912.4" font-family="Times,serif" font-size="14.00">ReleaseDate &#45;&gt;</text>
<text text-anchor="middle" x="1253.68" y="-4897.4" font-family="Times,serif" font-size="14.00">SetFeatureFreezeDate</text>
<text text-anchor="middle" x="1253.68" y="-4882.4" font-family="Times,serif" font-size="14.00">&#45;&gt; FeatureFreezeDate</text>
</g>
<!-- 37069936&#45;&gt;37070320 -->
<g id="edge18" class="edge"><title>37069936&#45;&gt;37070320</title>
<path fill="none" stroke="black" d="M1132.07,-5119.98C1156.78,-5075.5 1206.33,-4986.32 1233.94,-4936.62"/>
<polygon fill="black" stroke="black" points="1237.03,-4938.26 1238.83,-4927.82 1230.91,-4934.86 1237.03,-4938.26"/>
</g>
<!-- 37070864 -->
<g id="node18" class="node"><title>37070864</title>
<path fill="none" stroke="black" d="M1482.75,-4703.38C1482.75,-4703.38 1273.75,-4703.38 1273.75,-4703.38 1267.75,-4703.38 1261.75,-4697.38 1261.75,-4691.38 1261.75,-4691.38 1261.75,-4662.38 1261.75,-4662.38 1261.75,-4656.38 1267.75,-4650.38 1273.75,-4650.38 1273.75,-4650.38 1482.75,-4650.38 1482.75,-4650.38 1488.75,-4650.38 1494.75,-4656.38 1494.75,-4662.38 1494.75,-4662.38 1494.75,-4691.38 1494.75,-4691.38 1494.75,-4697.38 1488.75,-4703.38 1482.75,-4703.38"/>
<text text-anchor="middle" x="1378.25" y="-4688.18" font-family="Times,serif" font-size="14.00">FeatureFreezeDate &amp;&amp; ReleaseDate &#45;&gt;</text>
<text text-anchor="middle" x="1378.25" y="-4673.18" font-family="Times,serif" font-size="14.00">SetMilestoneCompletionDates</text>
<text text-anchor="middle" x="1378.25" y="-4658.18" font-family="Times,serif" font-size="14.00">&#45;&gt; MilestoneCompletionDates</text>
</g>
<!-- 37070320&#45;&gt;37070864 -->
<g id="edge19" class="edge"><title>37070320&#45;&gt;37070864</title>
<path fill="none" stroke="black" d="M1268.46,-4874.5C1290.89,-4834.13 1333.55,-4757.33 1358.58,-4712.29"/>
<polygon fill="black" stroke="black" points="1361.69,-4713.89 1363.49,-4703.45 1355.57,-4710.49 1361.69,-4713.89"/>
</g>
<!-- 37071536 -->
<g id="node19" class="node"><title>37071536</title>
<path fill="none" stroke="black" d="M1621.96,-4442.01C1621.96,-4442.01 1424.96,-4442.01 1424.96,-4442.01 1418.96,-4442.01 1412.96,-4436.01 1412.96,-4430.01 1412.96,-4430.01 1412.96,-4401.01 1412.96,-4401.01 1412.96,-4395.01 1418.96,-4389.01 1424.96,-4389.01 1424.96,-4389.01 1621.96,-4389.01 1621.96,-4389.01 1627.96,-4389.01 1633.96,-4395.01 1633.96,-4401.01 1633.96,-4401.01 1633.96,-4430.01 1633.96,-4430.01 1633.96,-4436.01 1627.96,-4442.01 1621.96,-4442.01"/>
<text text-anchor="middle" x="1523.46" y="-4426.81" font-family="Times,serif" font-size="14.00">[] &#45;&gt;</text>
<text text-anchor="middle" x="1523.46" y="-4411.81" font-family="Times,serif" font-size="14.00">EmailSolicitationForReleaseManager</text>
<text text-anchor="middle" x="1523.46" y="-4396.81" font-family="Times,serif" font-size="14.00">&#45;&gt; ReleaseManagerRequest</text>
</g>
<!-- 37070864&#45;&gt;37071536 -->
<g id="edge20" class="edge"><title>37070864&#45;&gt;37071536</title>
<path fill="none" stroke="black" d="M1393.24,-4649.9C1419.56,-4602.52 1474.07,-4504.42 1503.53,-4451.4"/>
<polygon fill="black" stroke="black" points="1506.76,-4452.79 1508.55,-4442.35 1500.64,-4449.39 1506.76,-4452.79"/>
</g>
<!-- 37071984 -->
<g id="node20" class="node"><title>37071984</title>
<path fill="none" stroke="black" d="M1686.27,-4231.78C1686.27,-4231.78 1594.27,-4231.78 1594.27,-4231.78 1588.27,-4231.78 1582.27,-4225.78 1582.27,-4219.78 1582.27,-4219.78 1582.27,-4190.78 1582.27,-4190.78 1582.27,-4184.78 1588.27,-4178.78 1594.27,-4178.78 1594.27,-4178.78 1686.27,-4178.78 1686.27,-4178.78 1692.27,-4178.78 1698.27,-4184.78 1698.27,-4190.78 1698.27,-4190.78 1698.27,-4219.78 1698.27,-4219.78 1698.27,-4225.78 1692.27,-4231.78 1686.27,-4231.78"/>
<text text-anchor="middle" x="1640.27" y="-4216.58" font-family="Times,serif" font-size="14.00">[] &#45;&gt;</text>
<text text-anchor="middle" x="1640.27" y="-4201.58" font-family="Times,serif" font-size="14.00">WaitForVolunteer</text>
<text text-anchor="middle" x="1640.27" y="-4186.58" font-family="Times,serif" font-size="14.00">&#45;&gt; []</text>
</g>
<!-- 37071536&#45;&gt;37071984 -->
<g id="edge21" class="edge"><title>37071536&#45;&gt;37071984</title>
<path fill="none" stroke="black" d="M1538.26,-4388.89C1559.13,-4351.32 1597.28,-4282.66 1620.54,-4240.78"/>
<polygon fill="black" stroke="black" points="1623.61,-4242.46 1625.41,-4232.02 1617.49,-4239.06 1623.61,-4242.46"/>
</g>
<!-- 37072480 -->
<g id="node21" class="node"><title>37072480</title>
<path fill="none" stroke="black" d="M1888.25,-4002.32C1888.25,-4002.32 1647.25,-4002.32 1647.25,-4002.32 1641.25,-4002.32 1635.25,-3996.32 1635.25,-3990.32 1635.25,-3990.32 1635.25,-3961.32 1635.25,-3961.32 1635.25,-3955.32 1641.25,-3949.32 1647.25,-3949.32 1647.25,-3949.32 1888.25,-3949.32 1888.25,-3949.32 1894.25,-3949.32 1900.25,-3955.32 1900.25,-3961.32 1900.25,-3961.32 1900.25,-3990.32 1900.25,-3990.32 1900.25,-3996.32 1894.25,-4002.32 1888.25,-4002.32"/>
<text text-anchor="middle" x="1767.75" y="-3987.12" font-family="Times,serif" font-size="14.00">ReleaseManagerRequest &#45;&gt;</text>
<text text-anchor="middle" x="1767.75" y="-3972.12" font-family="Times,serif" font-size="14.00">SendCandidacyAnnouncement</text>
<text text-anchor="middle" x="1767.75" y="-3957.12" font-family="Times,serif" font-size="14.00">&#45;&gt; ReleaseManagerCandidacyAnnouncement</text>
</g>
<!-- 37071984&#45;&gt;37072480 -->
<g id="edge22" class="edge"><title>37071984&#45;&gt;37072480</title>
<path fill="none" stroke="black" d="M1655.14,-4178.51C1678.17,-4137.06 1722.47,-4057.32 1748.11,-4011.18"/>
<polygon fill="black" stroke="black" points="1751.18,-4012.86 1752.97,-4002.42 1745.06,-4009.46 1751.18,-4012.86"/>
</g>
<!-- 37072480&#45;&gt;37072480 -->
<g id="edge23" class="edge"><title>37072480&#45;&gt;37072480</title>
<path fill="none" stroke="black" d="M1900.33,-3981.04C1911.38,-3979.91 1918.25,-3978.17 1918.25,-3975.82 1918.25,-3974.31 1915.43,-3973.05 1910.5,-3972.05"/>
<polygon fill="black" stroke="black" points="1910.73,-3968.55 1900.33,-3970.6 1909.74,-3975.48 1910.73,-3968.55"/>
</g>
<!-- 37067152 -->
<g id="node22" class="node"><title>37067152</title>
<path fill="none" stroke="black" d="M2055.64,-3705.55C2055.64,-3705.55 1809.64,-3705.55 1809.64,-3705.55 1803.64,-3705.55 1797.64,-3699.55 1797.64,-3693.55 1797.64,-3693.55 1797.64,-3664.55 1797.64,-3664.55 1797.64,-3658.55 1803.64,-3652.55 1809.64,-3652.55 1809.64,-3652.55 2055.64,-3652.55 2055.64,-3652.55 2061.64,-3652.55 2067.64,-3658.55 2067.64,-3664.55 2067.64,-3664.55 2067.64,-3693.55 2067.64,-3693.55 2067.64,-3699.55 2061.64,-3705.55 2055.64,-3705.55"/>
<text text-anchor="middle" x="1932.64" y="-3690.35" font-family="Times,serif" font-size="14.00">ReleaseManagerCandidacyAnnouncements &#45;&gt;</text>
<text text-anchor="middle" x="1932.64" y="-3675.35" font-family="Times,serif" font-size="14.00">EstablishReleaseManagerConsensus</text>
<text text-anchor="middle" x="1932.64" y="-3660.35" font-family="Times,serif" font-size="14.00">&#45;&gt; ReleaseManagerDecision</text>
</g>
<!-- 37072480&#45;&gt;37067152 -->
<g id="edge24" class="edge"><title>37072480&#45;&gt;37067152</title>
<path fill="none" stroke="black" d="M1782.53,-3949.22C1812.3,-3895.63 1879.51,-3774.67 1912.96,-3714.46"/>
<polygon fill="black" stroke="black" points="1916.04,-3716.13 1917.83,-3705.69 1909.92,-3712.73 1916.04,-3716.13"/>
</g>
<!-- 37074096 -->
<g id="node23" class="node"><title>37074096</title>
<path fill="none" stroke="black" d="M2255.91,-3386.48C2255.91,-3386.48 1963.91,-3386.48 1963.91,-3386.48 1957.91,-3386.48 1951.91,-3380.48 1951.91,-3374.48 1951.91,-3374.48 1951.91,-3345.48 1951.91,-3345.48 1951.91,-3339.48 1957.91,-3333.48 1963.91,-3333.48 1963.91,-3333.48 2255.91,-3333.48 2255.91,-3333.48 2261.91,-3333.48 2267.91,-3339.48 2267.91,-3345.48 2267.91,-3345.48 2267.91,-3374.48 2267.91,-3374.48 2267.91,-3380.48 2261.91,-3386.48 2255.91,-3386.48"/>
<text text-anchor="middle" x="2109.91" y="-3371.28" font-family="Times,serif" font-size="14.00">ReleaseManagerDecision &#45;&gt;</text>
<text text-anchor="middle" x="2109.91" y="-3356.28" font-family="Times,serif" font-size="14.00">AnnounceNewReleaseManager</text>
<text text-anchor="middle" x="2109.91" y="-3341.28" font-family="Times,serif" font-size="14.00">&#45;&gt; ReleaseManagerAnnoucementToNbdevMailingList</text>
</g>
<!-- 37067152&#45;&gt;37074096 -->
<g id="edge25" class="edge"><title>37067152&#45;&gt;37074096</title>
<path fill="none" stroke="black" d="M1947.45,-3652.39C1979.25,-3595.15 2054.1,-3460.42 2090.01,-3395.8"/>
<polygon fill="black" stroke="black" points="2093.22,-3397.23 2095.01,-3386.79 2087.1,-3393.83 2093.22,-3397.23"/>
</g>
<!-- 37074656 -->
<g id="node24" class="node"><title>37074656</title>
<path fill="none" stroke="black" d="M2462.17,-3036.83C2462.17,-3036.83 2146.17,-3036.83 2146.17,-3036.83 2140.17,-3036.83 2134.17,-3030.83 2134.17,-3024.83 2134.17,-3024.83 2134.17,-2995.83 2134.17,-2995.83 2134.17,-2989.83 2140.17,-2983.83 2146.17,-2983.83 2146.17,-2983.83 2462.17,-2983.83 2462.17,-2983.83 2468.17,-2983.83 2474.17,-2989.83 2474.17,-2995.83 2474.17,-2995.83 2474.17,-3024.83 2474.17,-3024.83 2474.17,-3030.83 2468.17,-3036.83 2462.17,-3036.83"/>
<text text-anchor="middle" x="2304.17" y="-3021.63" font-family="Times,serif" font-size="14.00">FeatureFreezeDate &#45;&gt;</text>
<text text-anchor="middle" x="2304.17" y="-3006.63" font-family="Times,serif" font-size="14.00">SolicitModuleMaintainersForInclusionInUpcomingRelease</text>
<text text-anchor="middle" x="2304.17" y="-2991.63" font-family="Times,serif" font-size="14.00">&#45;&gt; ModuleInclusionNoticeToNbdevMailingList</text>
</g>
<!-- 37074096&#45;&gt;37074656 -->
<g id="edge26" class="edge"><title>37074096&#45;&gt;37074656</title>
<path fill="none" stroke="black" d="M2124.67,-3333.41C2159.24,-3271.19 2245.48,-3115.96 2284.48,-3045.78"/>
<polygon fill="black" stroke="black" points="2287.64,-3047.29 2289.43,-3036.85 2281.52,-3043.89 2287.64,-3047.29"/>
</g>
<!-- 37075184 -->
<g id="node25" class="node"><title>37075184</title>
<path fill="none" stroke="black" d="M3458.58,-2871.93C3458.58,-2871.93 3294.58,-2871.93 3294.58,-2871.93 3288.58,-2871.93 3282.58,-2865.93 3282.58,-2859.93 3282.58,-2859.93 3282.58,-2830.93 3282.58,-2830.93 3282.58,-2824.93 3288.58,-2818.93 3294.58,-2818.93 3294.58,-2818.93 3458.58,-2818.93 3458.58,-2818.93 3464.58,-2818.93 3470.58,-2824.93 3470.58,-2830.93 3470.58,-2830.93 3470.58,-2859.93 3470.58,-2859.93 3470.58,-2865.93 3464.58,-2871.93 3458.58,-2871.93"/>
<text text-anchor="middle" x="3376.58" y="-2856.73" font-family="Times,serif" font-size="14.00">CvsCodeRepository &#45;&gt;</text>
<text text-anchor="middle" x="3376.58" y="-2841.73" font-family="Times,serif" font-size="14.00">ChangeBuildBranchName</text>
<text text-anchor="middle" x="3376.58" y="-2826.73" font-family="Times,serif" font-size="14.00">&#45;&gt; NewBranchForCurrentBuild</text>
</g>
<!-- 37074656&#45;&gt;37075184 -->
<g id="edge27" class="edge"><title>37074656&#45;&gt;37075184</title>
<path fill="none" stroke="black" d="M2474.39,-2984.15C2698.9,-2949.63 3087.13,-2889.93 3272.38,-2861.45"/>
<polygon fill="black" stroke="black" points="3273.05,-2864.89 3282.4,-2859.91 3271.98,-2857.97 3273.05,-2864.89"/>
</g>
<!-- 37075840 -->
<g id="node26" class="node"><title>37075840</title>
<path fill="none" stroke="black" d="M4006.46,-2681.7C4006.46,-2681.7 3792.46,-2681.7 3792.46,-2681.7 3786.46,-2681.7 3780.46,-2675.7 3780.46,-2669.7 3780.46,-2669.7 3780.46,-2640.7 3780.46,-2640.7 3780.46,-2634.7 3786.46,-2628.7 3792.46,-2628.7 3792.46,-2628.7 4006.46,-2628.7 4006.46,-2628.7 4012.46,-2628.7 4018.46,-2634.7 4018.46,-2640.7 4018.46,-2640.7 4018.46,-2669.7 4018.46,-2669.7 4018.46,-2675.7 4012.46,-2681.7 4006.46,-2681.7"/>
<text text-anchor="middle" x="3899.46" y="-2666.5" font-family="Times,serif" font-size="14.00">DevelopmentSourceForEachPlatform &#45;&gt;</text>
<text text-anchor="middle" x="3899.46" y="-2651.5" font-family="Times,serif" font-size="14.00">MakeInstallTarForEachPlatform</text>
<text text-anchor="middle" x="3899.46" y="-2636.5" font-family="Times,serif" font-size="14.00">&#45;&gt; InstallExecutableTar</text>
</g>
<!-- 37075184&#45;&gt;37075840 -->
<g id="edge28" class="edge"><title>37075184&#45;&gt;37075840</title>
<path fill="none" stroke="black" d="M3449.56,-2818.88C3546.14,-2783.74 3715.96,-2721.96 3817.05,-2685.18"/>
<polygon fill="black" stroke="black" points="3818.42,-2688.41 3826.62,-2681.7 3816.02,-2681.83 3818.42,-2688.41"/>
</g>
<!-- 37075840&#45;&gt;37075840 -->
<g id="edge29" class="edge"><title>37075840&#45;&gt;37075840</title>
<path fill="none" stroke="black" d="M4018.78,-2660.56C4029.63,-2659.45 4036.46,-2657.66 4036.46,-2655.2 4036.46,-2653.62 4033.66,-2652.32 4028.79,-2651.3"/>
<polygon fill="black" stroke="black" points="4029.18,-2647.82 4018.78,-2649.84 4028.16,-2654.75 4029.18,-2647.82"/>
</g>
<!-- 37076512 -->
<g id="node27" class="node"><title>37076512</title>
<path fill="none" stroke="black" d="M4442.24,-2305.86C4442.24,-2305.86 4177.24,-2305.86 4177.24,-2305.86 4171.24,-2305.86 4165.24,-2299.86 4165.24,-2293.86 4165.24,-2293.86 4165.24,-2264.86 4165.24,-2264.86 4165.24,-2258.86 4171.24,-2252.86 4177.24,-2252.86 4177.24,-2252.86 4442.24,-2252.86 4442.24,-2252.86 4448.24,-2252.86 4454.24,-2258.86 4454.24,-2264.86 4454.24,-2264.86 4454.24,-2293.86 4454.24,-2293.86 4454.24,-2299.86 4448.24,-2305.86 4442.24,-2305.86"/>
<text text-anchor="middle" x="4309.74" y="-2290.66" font-family="Times,serif" font-size="14.00">BinaryReleaseDownloads &amp;&amp; WebRepository &#45;&gt;</text>
<text text-anchor="middle" x="4309.74" y="-2275.66" font-family="Times,serif" font-size="14.00">UploadInstallTarFilesToWebRepository</text>
<text text-anchor="middle" x="4309.74" y="-2260.66" font-family="Times,serif" font-size="14.00">&#45;&gt; []</text>
</g>
<!-- 37075840&#45;&gt;37076512 -->
<g id="edge30" class="edge"><title>37075840&#45;&gt;37076512</title>
<path fill="none" stroke="black" d="M3928.64,-2628.47C4001.8,-2561.46 4192.91,-2386.38 4273.29,-2312.75"/>
<polygon fill="black" stroke="black" points="4275.71,-2315.28 4280.72,-2305.95 4270.98,-2310.12 4275.71,-2315.28"/>
</g>
<!-- 37077104 -->
<g id="node28" class="node"><title>37077104</title>
<path fill="none" stroke="black" d="M4586.97,-1801.61C4586.97,-1801.61 4502.97,-1801.61 4502.97,-1801.61 4496.97,-1801.61 4490.97,-1795.61 4490.97,-1789.61 4490.97,-1789.61 4490.97,-1760.61 4490.97,-1760.61 4490.97,-1754.61 4496.97,-1748.61 4502.97,-1748.61 4502.97,-1748.61 4586.97,-1748.61 4586.97,-1748.61 4592.97,-1748.61 4598.97,-1754.61 4598.97,-1760.61 4598.97,-1760.61 4598.97,-1789.61 4598.97,-1789.61 4598.97,-1795.61 4592.97,-1801.61 4586.97,-1801.61"/>
<text text-anchor="middle" x="4544.97" y="-1786.41" font-family="Times,serif" font-size="14.00">ProjectWeb &#45;&gt;</text>
<text text-anchor="middle" x="4544.97" y="-1771.41" font-family="Times,serif" font-size="14.00">UpdateWebPage</text>
<text text-anchor="middle" x="4544.97" y="-1756.41" font-family="Times,serif" font-size="14.00">&#45;&gt; UpdatedWeb</text>
</g>
<!-- 37076512&#45;&gt;37077104 -->
<g id="edge31" class="edge"><title>37076512&#45;&gt;37077104</title>
<path fill="none" stroke="black" d="M4322.22,-2252.6C4361.62,-2168.16 4483.35,-1907.19 4528.18,-1811.11"/>
<polygon fill="black" stroke="black" points="4531.46,-1812.35 4532.52,-1801.8 4525.12,-1809.39 4531.46,-1812.35"/>
</g>
<!-- 37077664 -->
<g id="node29" class="node"><title>37077664</title>
<path fill="none" stroke="black" d="M4708.32,-1245.74C4708.32,-1245.74 4430.32,-1245.74 4430.32,-1245.74 4424.32,-1245.74 4418.32,-1239.74 4418.32,-1233.74 4418.32,-1233.74 4418.32,-1204.74 4418.32,-1204.74 4418.32,-1198.74 4424.32,-1192.74 4430.32,-1192.74 4430.32,-1192.74 4708.32,-1192.74 4708.32,-1192.74 4714.32,-1192.74 4720.32,-1198.74 4720.32,-1204.74 4720.32,-1204.74 4720.32,-1233.74 4720.32,-1233.74 4720.32,-1239.74 4714.32,-1245.74 4708.32,-1245.74"/>
<text text-anchor="middle" x="4569.32" y="-1230.54" font-family="Times,serif" font-size="14.00">ChangesFromIndividualModules &#45;&gt;</text>
<text text-anchor="middle" x="4569.32" y="-1215.54" font-family="Times,serif" font-size="14.00">MakeReadmeInstallationNotesAndChangelog</text>
<text text-anchor="middle" x="4569.32" y="-1200.54" font-family="Times,serif" font-size="14.00">&#45;&gt; README &amp;&amp; InstallationNotes &amp;&amp; Changelog</text>
</g>
<!-- 37077104&#45;&gt;37077664 -->
<g id="edge32" class="edge"><title>37077104&#45;&gt;37077664</title>
<path fill="none" stroke="black" d="M4546.14,-1748.3C4550.13,-1657.31 4563.15,-1360.14 4567.72,-1255.83"/>
<polygon fill="black" stroke="black" points="4571.21,-1255.92 4568.16,-1245.78 4564.22,-1255.62 4571.21,-1255.92"/>
</g>
<!-- 37078512 -->
<g id="node30" class="node"><title>37078512</title>
<path fill="none" stroke="black" d="M4611.09,-722.857C4611.09,-722.857 4147.09,-722.857 4147.09,-722.857 4141.09,-722.857 4135.09,-716.857 4135.09,-710.857 4135.09,-710.857 4135.09,-681.857 4135.09,-681.857 4135.09,-675.857 4141.09,-669.857 4147.09,-669.857 4147.09,-669.857 4611.09,-669.857 4611.09,-669.857 4617.09,-669.857 4623.09,-675.857 4623.09,-681.857 4623.09,-681.857 4623.09,-710.857 4623.09,-710.857 4623.09,-716.857 4617.09,-722.857 4611.09,-722.857"/>
<text text-anchor="middle" x="4379.09" y="-707.657" font-family="Times,serif" font-size="14.00">[] &#45;&gt;</text>
<text text-anchor="middle" x="4379.09" y="-692.657" font-family="Times,serif" font-size="14.00">SendReleaseNotificationToCommunityInvitingTheCommunityToDownloadAndTestIt</text>
<text text-anchor="middle" x="4379.09" y="-677.657" font-family="Times,serif" font-size="14.00">&#45;&gt; ReleaseNotice</text>
</g>
<!-- 37077664&#45;&gt;37078512 -->
<g id="edge33" class="edge"><title>37077664&#45;&gt;37078512</title>
<path fill="none" stroke="black" d="M4559.62,-1192.59C4528.08,-1105.87 4428.3,-831.626 4392.25,-732.527"/>
<polygon fill="black" stroke="black" points="4395.48,-731.153 4388.77,-722.952 4388.9,-733.546 4395.48,-731.153"/>
</g>
<!-- 37078992 -->
<g id="node31" class="node"><title>37078992</title>
<path fill="none" stroke="black" d="M4096.75,-312.574C4096.75,-312.574 3909.75,-312.574 3909.75,-312.574 3903.75,-312.574 3897.75,-306.574 3897.75,-300.574 3897.75,-300.574 3897.75,-271.574 3897.75,-271.574 3897.75,-265.574 3903.75,-259.574 3909.75,-259.574 3909.75,-259.574 4096.75,-259.574 4096.75,-259.574 4102.75,-259.574 4108.75,-265.574 4108.75,-271.574 4108.75,-271.574 4108.75,-300.574 4108.75,-300.574 4108.75,-306.574 4102.75,-312.574 4096.75,-312.574"/>
<text text-anchor="middle" x="4003.25" y="-297.374" font-family="Times,serif" font-size="14.00">TestScripts &amp;&amp; ReleaseBinaries &#45;&gt;</text>
<text text-anchor="middle" x="4003.25" y="-282.374" font-family="Times,serif" font-size="14.00">ExecuteAutomaticTestScripts</text>
<text text-anchor="middle" x="4003.25" y="-267.374" font-family="Times,serif" font-size="14.00">&#45;&gt; TestResults</text>
</g>
<!-- 37078512&#45;&gt;37078992 -->
<g id="edge34" class="edge"><title>37078512&#45;&gt;37078992</title>
<path fill="none" stroke="black" d="M4354.72,-669.753C4288.98,-597.993 4108.05,-400.484 4034.73,-320.439"/>
<polygon fill="black" stroke="black" points="4036.9,-317.627 4027.56,-312.617 4031.74,-322.355 4036.9,-317.627"/>
</g>
<!-- 37079712 -->
<g id="node32" class="node"><title>37079712</title>
<path fill="none" stroke="black" d="M3568.5,-77.3517C3568.5,-77.3517 3429.5,-77.3517 3429.5,-77.3517 3423.5,-77.3517 3417.5,-71.3517 3417.5,-65.3517 3417.5,-65.3517 3417.5,-36.3517 3417.5,-36.3517 3417.5,-30.3517 3423.5,-24.3517 3429.5,-24.3517 3429.5,-24.3517 3568.5,-24.3517 3568.5,-24.3517 3574.5,-24.3517 3580.5,-30.3517 3580.5,-36.3517 3580.5,-36.3517 3580.5,-65.3517 3580.5,-65.3517 3580.5,-71.3517 3574.5,-77.3517 3568.5,-77.3517"/>
<text text-anchor="middle" x="3499" y="-62.1517" font-family="Times,serif" font-size="14.00">ReleaseBinaries &#45;&gt;</text>
<text text-anchor="middle" x="3499" y="-47.1517" font-family="Times,serif" font-size="14.00">ExecuteManualTestScripts</text>
<text text-anchor="middle" x="3499" y="-32.1517" font-family="Times,serif" font-size="14.00">&#45;&gt; TestResults</text>
</g>
<!-- 37078992&#45;&gt;37079712 -->
<g id="edge35" class="edge"><title>37078992&#45;&gt;37079712</title>
<path fill="none" stroke="black" d="M3946.39,-259.548C3852.35,-215.681 3664.93,-128.255 3565.13,-81.6989"/>
<polygon fill="black" stroke="black" points="3566.59,-78.5165 3556.05,-77.4608 3563.63,-84.8602 3566.59,-78.5165"/>
</g>
<!-- 37080288 -->
<g id="node33" class="node"><title>37080288</title>
<path fill="none" stroke="black" d="M3007.13,-53C3007.13,-53 2879.13,-53 2879.13,-53 2873.13,-53 2867.13,-47 2867.13,-41 2867.13,-41 2867.13,-12 2867.13,-12 2867.13,-6 2873.13,3.94351e-13 2879.13,3.94351e-13 2879.13,3.94351e-13 3007.13,3.94351e-13 3007.13,3.94351e-13 3013.13,3.94351e-13 3019.13,-6 3019.13,-12 3019.13,-12 3019.13,-41 3019.13,-41 3019.13,-47 3013.13,-53 3007.13,-53"/>
<text text-anchor="middle" x="2943.13" y="-37.8" font-family="Times,serif" font-size="14.00">TestResults &#45;&gt;</text>
<text text-anchor="middle" x="2943.13" y="-22.8" font-family="Times,serif" font-size="14.00">ReportIssuesToIssuezilla</text>
<text text-anchor="middle" x="2943.13" y="-7.8" font-family="Times,serif" font-size="14.00">&#45;&gt; IssuezillaEntry</text>
</g>
<!-- 37079712&#45;&gt;37080288 -->
<g id="edge36" class="edge"><title>37079712&#45;&gt;37080288</title>
<path fill="none" stroke="black" d="M3417.28,-47.2716C3313.5,-42.725 3135.21,-34.9147 3029.33,-30.2764"/>
<polygon fill="black" stroke="black" points="3029.46,-26.7788 3019.32,-29.8377 3029.16,-33.7721 3029.46,-26.7788"/>
</g>
<!-- 37080928 -->
<g id="node34" class="node"><title>37080928</title>
<path fill="none" stroke="black" d="M2554.75,-243.226C2554.75,-243.226 2285.75,-243.226 2285.75,-243.226 2279.75,-243.226 2273.75,-237.226 2273.75,-231.226 2273.75,-231.226 2273.75,-202.226 2273.75,-202.226 2273.75,-196.226 2279.75,-190.226 2285.75,-190.226 2285.75,-190.226 2554.75,-190.226 2554.75,-190.226 2560.75,-190.226 2566.75,-196.226 2566.75,-202.226 2566.75,-202.226 2566.75,-231.226 2566.75,-231.226 2566.75,-237.226 2560.75,-243.226 2554.75,-243.226"/>
<text text-anchor="middle" x="2420.25" y="-228.026" font-family="Times,serif" font-size="14.00">St &amp;&amp; ingIssueFromIssuezilla &amp;&amp; TestResults &#45;&gt;</text>
<text text-anchor="middle" x="2420.25" y="-213.026" font-family="Times,serif" font-size="14.00">UpdateStandingIssueStatus</text>
<text text-anchor="middle" x="2420.25" y="-198.026" font-family="Times,serif" font-size="14.00">&#45;&gt; UpdatedIssuezillaIssueRepository</text>
</g>
<!-- 37080288&#45;&gt;37080928 -->
<g id="edge37" class="edge"><title>37080288&#45;&gt;37080928</title>
<path fill="none" stroke="black" d="M2867.1,-48.9605C2765.69,-83.1804 2587.62,-147.993 2489.67,-186.358"/>
<polygon fill="black" stroke="black" points="2488.19,-183.183 2480.16,-190.101 2490.75,-189.697 2488.19,-183.183"/>
</g>
<!-- 37080928&#45;&gt;37080288 -->
<g id="edge38" class="edge"><title>37080928&#45;&gt;37080288</title>
<path fill="none" stroke="black" d="M2508.36,-190.169C2611.34,-155.075 2779.6,-93.7292 2873.76,-56.847"/>
<polygon fill="black" stroke="black" points="2875.17,-60.054 2883.19,-53.1356 2872.6,-53.5401 2875.17,-60.054"/>
</g>
<!-- 37081648 -->
<g id="node35" class="node"><title>37081648</title>
<path fill="none" stroke="black" d="M2122.97,-619.07C2122.97,-619.07 1896.97,-619.07 1896.97,-619.07 1890.97,-619.07 1884.97,-613.07 1884.97,-607.07 1884.97,-607.07 1884.97,-578.07 1884.97,-578.07 1884.97,-572.07 1890.97,-566.07 1896.97,-566.07 1896.97,-566.07 2122.97,-566.07 2122.97,-566.07 2128.97,-566.07 2134.97,-572.07 2134.97,-578.07 2134.97,-578.07 2134.97,-607.07 2134.97,-607.07 2134.97,-613.07 2128.97,-619.07 2122.97,-619.07"/>
<text text-anchor="middle" x="2009.97" y="-603.87" font-family="Times,serif" font-size="14.00">TestResults &#45;&gt;</text>
<text text-anchor="middle" x="2009.97" y="-588.87" font-family="Times,serif" font-size="14.00">PostBugStats</text>
<text text-anchor="middle" x="2009.97" y="-573.87" font-family="Times,serif" font-size="14.00">&#45;&gt; BugStatusReport &amp;&amp; TestResultReport</text>
</g>
<!-- 37080928&#45;&gt;37081648 -->
<g id="edge39" class="edge"><title>37080928&#45;&gt;37081648</title>
<path fill="none" stroke="black" d="M2391.07,-243.455C2317.91,-310.471 2126.8,-485.544 2046.42,-559.176"/>
<polygon fill="black" stroke="black" points="2044,-556.643 2038.99,-565.978 2048.73,-561.804 2044,-556.643"/>
</g>
<!-- 37073056 -->
<g id="node36" class="node"><title>37073056</title>
<path fill="none" stroke="black" d="M1848.74,-1123.31C1848.74,-1123.31 1700.74,-1123.31 1700.74,-1123.31 1694.74,-1123.31 1688.74,-1117.31 1688.74,-1111.31 1688.74,-1111.31 1688.74,-1082.31 1688.74,-1082.31 1688.74,-1076.31 1694.74,-1070.31 1700.74,-1070.31 1700.74,-1070.31 1848.74,-1070.31 1848.74,-1070.31 1854.74,-1070.31 1860.74,-1076.31 1860.74,-1082.31 1860.74,-1082.31 1860.74,-1111.31 1860.74,-1111.31 1860.74,-1117.31 1854.74,-1123.31 1848.74,-1123.31"/>
<text text-anchor="middle" x="1774.74" y="-1108.11" font-family="Times,serif" font-size="14.00">TestReport &amp;&amp; BugStats &#45;&gt;</text>
<text text-anchor="middle" x="1774.74" y="-1093.11" font-family="Times,serif" font-size="14.00">ExamineTestReport</text>
<text text-anchor="middle" x="1774.74" y="-1078.11" font-family="Times,serif" font-size="14.00">&#45;&gt; []</text>
</g>
<!-- 37081648&#45;&gt;37073056 -->
<g id="edge40" class="edge"><title>37081648&#45;&gt;37073056</title>
<path fill="none" stroke="black" d="M1997.49,-619.325C1958.09,-703.771 1836.36,-964.737 1791.53,-1060.82"/>
<polygon fill="black" stroke="black" points="1788.25,-1059.58 1787.19,-1070.12 1794.59,-1062.54 1788.25,-1059.58"/>
</g>
<!-- 37073760 -->
<g id="node37" class="node"><title>37073760</title>
<path fill="none" stroke="black" d="M1801.39,-1679.19C1801.39,-1679.19 1699.39,-1679.19 1699.39,-1679.19 1693.39,-1679.19 1687.39,-1673.19 1687.39,-1667.19 1687.39,-1667.19 1687.39,-1638.19 1687.39,-1638.19 1687.39,-1632.19 1693.39,-1626.19 1699.39,-1626.19 1699.39,-1626.19 1801.39,-1626.19 1801.39,-1626.19 1807.39,-1626.19 1813.39,-1632.19 1813.39,-1638.19 1813.39,-1638.19 1813.39,-1667.19 1813.39,-1667.19 1813.39,-1673.19 1807.39,-1679.19 1801.39,-1679.19"/>
<text text-anchor="middle" x="1750.39" y="-1663.99" font-family="Times,serif" font-size="14.00">ErroneousSource &#45;&gt;</text>
<text text-anchor="middle" x="1750.39" y="-1648.99" font-family="Times,serif" font-size="14.00">WriteBugFix</text>
<text text-anchor="middle" x="1750.39" y="-1633.99" font-family="Times,serif" font-size="14.00">&#45;&gt; PotentialBugFix</text>
</g>
<!-- 37073056&#45;&gt;37073760 -->
<g id="edge41" class="edge"><title>37073056&#45;&gt;37073760</title>
<path fill="none" stroke="black" d="M1773.57,-1123.62C1769.58,-1214.62 1756.56,-1511.79 1751.99,-1616.1"/>
<polygon fill="black" stroke="black" points="1748.5,-1616 1751.55,-1626.15 1755.49,-1616.31 1748.5,-1616"/>
</g>
<!-- 37084528 -->
<g id="node38" class="node"><title>37084528</title>
<path fill="none" stroke="black" d="M1989.62,-2202.07C1989.62,-2202.07 1891.62,-2202.07 1891.62,-2202.07 1885.62,-2202.07 1879.62,-2196.07 1879.62,-2190.07 1879.62,-2190.07 1879.62,-2161.07 1879.62,-2161.07 1879.62,-2155.07 1885.62,-2149.07 1891.62,-2149.07 1891.62,-2149.07 1989.62,-2149.07 1989.62,-2149.07 1995.62,-2149.07 2001.62,-2155.07 2001.62,-2161.07 2001.62,-2161.07 2001.62,-2190.07 2001.62,-2190.07 2001.62,-2196.07 1995.62,-2202.07 1989.62,-2202.07"/>
<text text-anchor="middle" x="1940.62" y="-2186.87" font-family="Times,serif" font-size="14.00">PotentialBugFix &#45;&gt;</text>
<text text-anchor="middle" x="1940.62" y="-2171.87" font-family="Times,serif" font-size="14.00">VerifyBugFix</text>
<text text-anchor="middle" x="1940.62" y="-2156.87" font-family="Times,serif" font-size="14.00">&#45;&gt; WorkingBugFix</text>
</g>
<!-- 37073760&#45;&gt;37084528 -->
<g id="edge42" class="edge"><title>37073760&#45;&gt;37084528</title>
<path fill="none" stroke="black" d="M1760.09,-1679.34C1791.63,-1766.06 1891.41,-2040.3 1927.46,-2139.4"/>
<polygon fill="black" stroke="black" points="1924.23,-2140.77 1930.94,-2148.97 1930.81,-2138.38 1924.23,-2140.77"/>
</g>
<!-- 37085216 -->
<g id="node39" class="node"><title>37085216</title>
<path fill="none" stroke="black" d="M2440.46,-2612.35C2440.46,-2612.35 2192.46,-2612.35 2192.46,-2612.35 2186.46,-2612.35 2180.46,-2606.35 2180.46,-2600.35 2180.46,-2600.35 2180.46,-2571.35 2180.46,-2571.35 2180.46,-2565.35 2186.46,-2559.35 2192.46,-2559.35 2192.46,-2559.35 2440.46,-2559.35 2440.46,-2559.35 2446.46,-2559.35 2452.46,-2565.35 2452.46,-2571.35 2452.46,-2571.35 2452.46,-2600.35 2452.46,-2600.35 2452.46,-2606.35 2446.46,-2612.35 2440.46,-2612.35"/>
<text text-anchor="middle" x="2316.46" y="-2597.15" font-family="Times,serif" font-size="14.00">WorkingBugFix &amp;&amp; CVSCodeRepsository &#45;&gt;</text>
<text text-anchor="middle" x="2316.46" y="-2582.15" font-family="Times,serif" font-size="14.00">CommitCodeToCvsCodeRepository</text>
<text text-anchor="middle" x="2316.46" y="-2567.15" font-family="Times,serif" font-size="14.00">&#45;&gt; UpdatedSource</text>
</g>
<!-- 37084528&#45;&gt;37085216 -->
<g id="edge43" class="edge"><title>37084528&#45;&gt;37085216</title>
<path fill="none" stroke="black" d="M1964.99,-2202.17C2030.73,-2273.93 2211.66,-2471.44 2284.98,-2551.49"/>
<polygon fill="black" stroke="black" points="2282.81,-2554.3 2292.15,-2559.31 2287.97,-2549.57 2282.81,-2554.3"/>
</g>
<!-- 37085936 -->
<g id="node40" class="node"><title>37085936</title>
<path fill="none" stroke="black" d="M2912.2,-2847.57C2912.2,-2847.57 2729.2,-2847.57 2729.2,-2847.57 2723.2,-2847.57 2717.2,-2841.57 2717.2,-2835.57 2717.2,-2835.57 2717.2,-2806.57 2717.2,-2806.57 2717.2,-2800.57 2723.2,-2794.57 2729.2,-2794.57 2729.2,-2794.57 2912.2,-2794.57 2912.2,-2794.57 2918.2,-2794.57 2924.2,-2800.57 2924.2,-2806.57 2924.2,-2806.57 2924.2,-2835.57 2924.2,-2835.57 2924.2,-2841.57 2918.2,-2847.57 2912.2,-2847.57"/>
<text text-anchor="middle" x="2820.7" y="-2832.37" font-family="Times,serif" font-size="14.00">IssuezillaIssueRepository &#45;&gt;</text>
<text text-anchor="middle" x="2820.7" y="-2817.37" font-family="Times,serif" font-size="14.00">UpdateIssuezillaToReflectChanges</text>
<text text-anchor="middle" x="2820.7" y="-2802.37" font-family="Times,serif" font-size="14.00">&#45;&gt; UpdateIssueStatus</text>
</g>
<!-- 37085216&#45;&gt;37085936 -->
<g id="edge44" class="edge"><title>37085216&#45;&gt;37085936</title>
<path fill="none" stroke="black" d="M2373.32,-2612.38C2467.36,-2656.25 2654.78,-2743.67 2754.58,-2790.23"/>
<polygon fill="black" stroke="black" points="2753.12,-2793.41 2763.66,-2794.47 2756.08,-2787.07 2753.12,-2793.41"/>
</g>
<!-- 37085936&#45;&gt;37075184 -->
<g id="edge45" class="edge"><title>37085936&#45;&gt;37075184</title>
<path fill="none" stroke="black" d="M2924.28,-2825.61C3023.59,-2829.96 3172.7,-2836.5 3272.25,-2840.86"/>
<polygon fill="black" stroke="black" points="3272.19,-2844.36 3282.33,-2841.3 3272.49,-2837.36 3272.19,-2844.36"/>
</g>
<!-- 37061680 -->
<g id="node41" class="node"><title>37061680</title>
<polygon fill="none" stroke="black" points="2824.16,-2935.23 2770.16,-2935.23 2770.16,-2899.23 2824.16,-2899.23 2824.16,-2935.23"/>
<text text-anchor="middle" x="2797.16" y="-2913.53" font-family="Times,serif" font-size="14.00">end</text>
</g>
<!-- 37085936&#45;&gt;37061680 -->
<g id="edge46" class="edge"><title>37085936&#45;&gt;37061680</title>
<path fill="none" stroke="black" d="M2814.21,-2847.61C2811.05,-2860.5 2807.25,-2876.01 2804.05,-2889.11"/>
<polygon fill="black" stroke="black" points="2800.6,-2888.46 2801.62,-2899 2807.4,-2890.12 2800.6,-2888.46"/>
</g>
</g>
</svg>
