<?xml version="1.0" encoding="UTF-8" standalone="no"?>
<!DOCTYPE svg PUBLIC "-//W3C//DTD SVG 1.1//EN"
 "http://www.w3.org/Graphics/SVG/1.1/DTD/svg11.dtd">
<!-- Generated by graphviz version 2.36.0 (20140111.2315)
 -->
<!-- Title: tmpFMmW_A Pages: 1 -->
<svg width="545pt" height="434pt"
 viewBox="0.00 0.00 545.50 433.53" xmlns="http://www.w3.org/2000/svg" xmlns:xlink="http://www.w3.org/1999/xlink">
<g id="graph0" class="graph" transform="scale(1 1) rotate(0) translate(4 429.535)">
<title>tmpFMmW_A</title>
<polygon fill="white" stroke="none" points="-4,4 -4,-429.535 541.497,-429.535 541.497,4 -4,4"/>
<!-- process -->
<g id="node1" class="node"><title>process</title>
<text text-anchor="middle" x="178.972" y="-90.2998" font-family="Times,serif" font-size="14.00">/tmp/tmpFMmW_A</text>
</g>
<!-- 23708480 -->
<g id="node2" class="node"><title>23708480</title>
<polygon fill="none" stroke="black" points="54,-214 -3.19744e-14,-214 -3.19744e-14,-178 54,-178 54,-214"/>
<text text-anchor="middle" x="27" y="-192.3" font-family="Times,serif" font-size="14.00">start</text>
</g>
<!-- 23709040 -->
<g id="node3" class="node"><title>23709040</title>
<path fill="none" stroke="black" d="M251.257,-222.5C251.257,-222.5 102.257,-222.5 102.257,-222.5 96.2571,-222.5 90.2571,-216.5 90.2571,-210.5 90.2571,-210.5 90.2571,-181.5 90.2571,-181.5 90.2571,-175.5 96.2571,-169.5 102.257,-169.5 102.257,-169.5 251.257,-169.5 251.257,-169.5 257.257,-169.5 263.257,-175.5 263.257,-181.5 263.257,-181.5 263.257,-210.5 263.257,-210.5 263.257,-216.5 257.257,-222.5 251.257,-222.5"/>
<text text-anchor="middle" x="176.757" y="-207.3" font-family="Times,serif" font-size="14.00">reported_symptoms &#45;&gt;</text>
<text text-anchor="middle" x="176.757" y="-192.3" font-family="Times,serif" font-size="14.00">PresentToSpecialistClinician</text>
<text text-anchor="middle" x="176.757" y="-177.3" font-family="Times,serif" font-size="14.00">&#45;&gt; scheduled_examination</text>
</g>
<!-- 23708480&#45;&gt;23709040 -->
<g id="edge1" class="edge"><title>23708480&#45;&gt;23709040</title>
<path fill="none" stroke="black" d="M54.1199,-196C61.7954,-196 70.6201,-196 79.9422,-196"/>
<polygon fill="black" stroke="black" points="80.2222,-199.5 90.2222,-196 80.2222,-192.5 80.2222,-199.5"/>
</g>
<!-- 23709600 -->
<g id="node4" class="node"><title>23709600</title>
<path fill="none" stroke="black" d="M331.462,-425.535C331.462,-425.535 194.462,-425.535 194.462,-425.535 188.462,-425.535 182.462,-419.535 182.462,-413.535 182.462,-413.535 182.462,-384.535 182.462,-384.535 182.462,-378.535 188.462,-372.535 194.462,-372.535 194.462,-372.535 331.462,-372.535 331.462,-372.535 337.462,-372.535 343.462,-378.535 343.462,-384.535 343.462,-384.535 343.462,-413.535 343.462,-413.535 343.462,-419.535 337.462,-425.535 331.462,-425.535"/>
<text text-anchor="middle" x="262.962" y="-410.335" font-family="Times,serif" font-size="14.00">scheduled_examination &#45;&gt;</text>
<text text-anchor="middle" x="262.962" y="-395.335" font-family="Times,serif" font-size="14.00">Examine</text>
<text text-anchor="middle" x="262.962" y="-380.335" font-family="Times,serif" font-size="14.00">&#45;&gt; examination_results</text>
</g>
<!-- 23709040&#45;&gt;23709600 -->
<g id="edge2" class="edge"><title>23709040&#45;&gt;23709600</title>
<path fill="none" stroke="black" d="M183.08,-222.699C195.59,-258.694 222.538,-322.841 241.813,-363.057"/>
<polygon fill="black" stroke="black" points="238.762,-364.785 246.289,-372.24 245.054,-361.718 238.762,-364.785"/>
</g>
<!-- 23709600&#45;&gt;23709040 -->
<g id="edge3" class="edge"><title>23709600&#45;&gt;23709040</title>
<path fill="none" stroke="black" d="M256.639,-372.335C244.13,-336.34 217.181,-272.193 197.906,-231.978"/>
<polygon fill="black" stroke="black" points="200.958,-230.25 193.43,-222.794 194.665,-233.317 200.958,-230.25"/>
</g>
<!-- 23709952 -->
<g id="node5" class="node"><title>23709952</title>
<path fill="none" stroke="black" d="M525.497,-339.329C525.497,-339.329 406.497,-339.329 406.497,-339.329 400.497,-339.329 394.497,-333.329 394.497,-327.329 394.497,-327.329 394.497,-298.329 394.497,-298.329 394.497,-292.329 400.497,-286.329 406.497,-286.329 406.497,-286.329 525.497,-286.329 525.497,-286.329 531.497,-286.329 537.497,-292.329 537.497,-298.329 537.497,-298.329 537.497,-327.329 537.497,-327.329 537.497,-333.329 531.497,-339.329 525.497,-339.329"/>
<text text-anchor="middle" x="465.997" y="-324.129" font-family="Times,serif" font-size="14.00">examination_results &#45;&gt;</text>
<text text-anchor="middle" x="465.997" y="-309.129" font-family="Times,serif" font-size="14.00">Diagnose</text>
<text text-anchor="middle" x="465.997" y="-294.129" font-family="Times,serif" font-size="14.00">&#45;&gt; diagnosis</text>
</g>
<!-- 23709600&#45;&gt;23709952 -->
<g id="edge4" class="edge"><title>23709600&#45;&gt;23709952</title>
<path fill="none" stroke="black" d="M325.536,-372.467C347.15,-363.29 371.54,-352.934 393.857,-343.459"/>
<polygon fill="black" stroke="black" points="395.443,-346.588 403.28,-339.458 392.708,-340.144 395.443,-346.588"/>
</g>
<!-- 23710496 -->
<g id="node6" class="node"><title>23710496</title>
<path fill="none" stroke="black" d="M410.292,-136.295C410.292,-136.295 349.292,-136.295 349.292,-136.295 343.292,-136.295 337.292,-130.295 337.292,-124.295 337.292,-124.295 337.292,-95.2946 337.292,-95.2946 337.292,-89.2946 343.292,-83.2946 349.292,-83.2946 349.292,-83.2946 410.292,-83.2946 410.292,-83.2946 416.292,-83.2946 422.292,-89.2946 422.292,-95.2946 422.292,-95.2946 422.292,-124.295 422.292,-124.295 422.292,-130.295 416.292,-136.295 410.292,-136.295"/>
<text text-anchor="middle" x="379.792" y="-121.095" font-family="Times,serif" font-size="14.00">diagnosis &#45;&gt;</text>
<text text-anchor="middle" x="379.792" y="-106.095" font-family="Times,serif" font-size="14.00">Treat</text>
<text text-anchor="middle" x="379.792" y="-91.0946" font-family="Times,serif" font-size="14.00">&#45;&gt; treatment</text>
</g>
<!-- 23709952&#45;&gt;23710496 -->
<g id="edge5" class="edge"><title>23709952&#45;&gt;23710496</title>
<path fill="none" stroke="black" d="M454.727,-286.286C439.464,-250.339 412.17,-186.053 395.073,-145.786"/>
<polygon fill="black" stroke="black" points="398.194,-144.181 391.064,-136.344 391.751,-146.917 398.194,-144.181"/>
</g>
<!-- 23710496&#45;&gt;23709040 -->
<g id="edge6" class="edge"><title>23710496&#45;&gt;23709040</title>
<path fill="none" stroke="black" d="M337.229,-127.866C311.627,-138.736 278.369,-152.857 248.775,-165.422"/>
<polygon fill="black" stroke="black" points="247.146,-162.311 239.309,-169.441 249.882,-168.755 247.146,-162.311"/>
</g>
<!-- 23708720 -->
<g id="node7" class="node"><title>23708720</title>
<polygon fill="none" stroke="black" points="443.869,-36 389.869,-36 389.869,-0 443.869,-0 443.869,-36"/>
<text text-anchor="middle" x="416.869" y="-14.3" font-family="Times,serif" font-size="14.00">end</text>
</g>
<!-- 23710496&#45;&gt;23708720 -->
<g id="edge7" class="edge"><title>23710496&#45;&gt;23708720</title>
<path fill="none" stroke="black" d="M390.516,-83.2438C395.295,-71.4128 400.922,-57.4825 405.746,-45.5383"/>
<polygon fill="black" stroke="black" points="409.074,-46.6451 409.574,-36.0621 402.583,-44.0234 409.074,-46.6451"/>
</g>
</g>
</svg>
