<?xml version="1.0" encoding="UTF-8" standalone="no"?>
<!DOCTYPE svg PUBLIC "-//W3C//DTD SVG 1.1//EN"
 "http://www.w3.org/Graphics/SVG/1.1/DTD/svg11.dtd">
<!-- Generated by graphviz version 2.36.0 (20140111.2315)
 -->
<!-- Title: tmpSLuryd Pages: 1 -->
<svg width="646pt" height="135pt"
 viewBox="0.00 0.00 646.00 134.50" xmlns="http://www.w3.org/2000/svg" xmlns:xlink="http://www.w3.org/1999/xlink">
<g id="graph0" class="graph" transform="scale(1 1) rotate(0) translate(4 130.5)">
<title>tmpSLuryd</title>
<polygon fill="white" stroke="none" points="-4,4 -4,-130.5 642,-130.5 642,4 -4,4"/>
<!-- process -->
<g id="node1" class="node"><title>process</title>
<text text-anchor="middle" x="432" y="-104.8" font-family="Times,serif" font-size="14.00">/tmp/tmpSLuryd</text>
</g>
<!-- 7439168 -->
<g id="node2" class="node"><title>7439168</title>
<polygon fill="none" stroke="black" points="54,-44.5 0,-44.5 0,-8.5 54,-8.5 54,-44.5"/>
<text text-anchor="middle" x="27" y="-22.8" font-family="Times,serif" font-size="14.00">start</text>
</g>
<!-- 7439712 -->
<g id="node3" class="node"><title>7439712</title>
<path fill="none" stroke="black" d="M271,-53C271,-53 138,-53 138,-53 132,-53 126,-47 126,-41 126,-41 126,-12 126,-12 126,-6 132,-0 138,-0 138,-0 271,-0 271,-0 277,-0 283,-6 283,-12 283,-12 283,-41 283,-41 283,-47 277,-53 271,-53"/>
<text text-anchor="middle" x="204.5" y="-37.8" font-family="Times,serif" font-size="14.00">code &#45;&gt;</text>
<text text-anchor="middle" x="204.5" y="-22.8" font-family="Times,serif" font-size="14.00">compile</text>
<text text-anchor="middle" x="204.5" y="-7.8" font-family="Times,serif" font-size="14.00">&#45;&gt; code.compiles == true</text>
</g>
<!-- 7439168&#45;&gt;7439712 -->
<g id="edge1" class="edge"><title>7439168&#45;&gt;7439712</title>
<path fill="none" stroke="black" d="M54.3454,-26.5C70.9586,-26.5 93.2023,-26.5 115.47,-26.5"/>
<polygon fill="black" stroke="black" points="115.682,-30.0001 125.682,-26.5 115.682,-23.0001 115.682,-30.0001"/>
</g>
<!-- 7440448 -->
<g id="node4" class="node"><title>7440448</title>
<path fill="none" stroke="black" d="M500,-53C500,-53 367,-53 367,-53 361,-53 355,-47 355,-41 355,-41 355,-12 355,-12 355,-6 361,-0 367,-0 367,-0 500,-0 500,-0 506,-0 512,-6 512,-12 512,-12 512,-41 512,-41 512,-47 506,-53 500,-53"/>
<text text-anchor="middle" x="433.5" y="-37.8" font-family="Times,serif" font-size="14.00">code.compiles == true &#45;&gt;</text>
<text text-anchor="middle" x="433.5" y="-22.8" font-family="Times,serif" font-size="14.00">test</text>
<text text-anchor="middle" x="433.5" y="-7.8" font-family="Times,serif" font-size="14.00">&#45;&gt; test_report</text>
</g>
<!-- 7439712&#45;&gt;7440448 -->
<g id="edge2" class="edge"><title>7439712&#45;&gt;7440448</title>
<path fill="none" stroke="black" d="M283.309,-26.5C303.12,-26.5 324.516,-26.5 344.776,-26.5"/>
<polygon fill="black" stroke="black" points="344.934,-30.0001 354.934,-26.5 344.934,-23.0001 344.934,-30.0001"/>
</g>
<!-- 7439408 -->
<g id="node5" class="node"><title>7439408</title>
<polygon fill="none" stroke="black" points="638,-44.5 584,-44.5 584,-8.5 638,-8.5 638,-44.5"/>
<text text-anchor="middle" x="611" y="-22.8" font-family="Times,serif" font-size="14.00">end</text>
</g>
<!-- 7440448&#45;&gt;7439408 -->
<g id="edge3" class="edge"><title>7440448&#45;&gt;7439408</title>
<path fill="none" stroke="black" d="M512.129,-26.5C533.524,-26.5 555.714,-26.5 573.637,-26.5"/>
<polygon fill="black" stroke="black" points="573.659,-30.0001 583.659,-26.5 573.659,-23.0001 573.659,-30.0001"/>
</g>
</g>
</svg>
