<?xml version="1.0" encoding="UTF-8" standalone="no"?>
<!DOCTYPE svg PUBLIC "-//W3C//DTD SVG 1.1//EN"
 "http://www.w3.org/Graphics/SVG/1.1/DTD/svg11.dtd">
<!-- Generated by graphviz version 2.36.0 (20140111.2315)
 -->
<!-- Title: tmpGPMk00 Pages: 1 -->
<svg width="4830pt" height="4952pt"
 viewBox="0.00 0.00 4830.37 4951.91" xmlns="http://www.w3.org/2000/svg" xmlns:xlink="http://www.w3.org/1999/xlink">
<g id="graph0" class="graph" transform="scale(1 1) rotate(0) translate(4 4947.91)">
<title>tmpGPMk00</title>
<polygon fill="white" stroke="none" points="-4,4 -4,-4947.91 4826.37,-4947.91 4826.37,4 -4,4"/>
<!-- 14330480 -->
<g id="node1" class="node"><title>14330480</title>
<ellipse fill="lightgrey" stroke="black" cx="1691.02" cy="-26.5" rx="18" ry="18"/>
<text text-anchor="middle" x="1691.02" y="-22.8" font-family="Times,serif" font-size="14.00">14330480</text>
</g>
<!-- 14331040 -->
<g id="node3" class="node"><title>14331040</title>
<path fill="none" stroke="black" d="M1446.63,-436.901C1446.63,-436.901 878.626,-436.901 878.626,-436.901 872.626,-436.901 866.626,-430.901 866.626,-424.901 866.626,-424.901 866.626,-395.901 866.626,-395.901 866.626,-389.901 872.626,-383.901 878.626,-383.901 878.626,-383.901 1446.63,-383.901 1446.63,-383.901 1452.63,-383.901 1458.63,-389.901 1458.63,-395.901 1458.63,-395.901 1458.63,-424.901 1458.63,-424.901 1458.63,-430.901 1452.63,-436.901 1446.63,-436.901"/>
<text text-anchor="middle" x="1162.63" y="-421.701" font-family="Times,serif" font-size="14.00">[] &#45;&gt;</text>
<text text-anchor="middle" x="1162.63" y="-406.701" font-family="Times,serif" font-size="14.00">non_medication_interventions</text>
<text text-anchor="middle" x="1162.63" y="-391.701" font-family="Times,serif" font-size="14.00">&#45;&gt; support_for_carer &amp;&amp; info_about_servicesAndInterventions &amp;&amp; optional (qual) cognitive_simulation</text>
</g>
<!-- 14330480&#45;&gt;14331040 -->
<g id="edge9" class="edge"><title>14330480&#45;&gt;14331040</title>
<path fill="none" stroke="black" d="M1676.34,-37.1684C1608.03,-86.7977 1319.94,-296.106 1207.68,-377.67"/>
<polygon fill="black" stroke="black" points="1205.3,-375.071 1199.27,-383.78 1209.41,-380.734 1205.3,-375.071"/>
</g>
<!-- 14332112 -->
<g id="node4" class="node"><title>14332112</title>
<path fill="none" stroke="black" d="M1102.8,-1058.07C1102.8,-1058.07 818.797,-1058.07 818.797,-1058.07 812.797,-1058.07 806.797,-1052.07 806.797,-1046.07 806.797,-1046.07 806.797,-1017.07 806.797,-1017.07 806.797,-1011.07 812.797,-1005.07 818.797,-1005.07 818.797,-1005.07 1102.8,-1005.07 1102.8,-1005.07 1108.8,-1005.07 1114.8,-1011.07 1114.8,-1017.07 1114.8,-1017.07 1114.8,-1046.07 1114.8,-1046.07 1114.8,-1052.07 1108.8,-1058.07 1102.8,-1058.07"/>
<text text-anchor="middle" x="960.797" y="-1042.87" font-family="Times,serif" font-size="14.00">intangible (qual) carer_view_on_patient_condition &#45;&gt;</text>
<text text-anchor="middle" x="960.797" y="-1027.87" font-family="Times,serif" font-size="14.00">medication_interventions</text>
<text text-anchor="middle" x="960.797" y="-1012.87" font-family="Times,serif" font-size="14.00">&#45;&gt; prescription</text>
</g>
<!-- 14330480&#45;&gt;14332112 -->
<g id="edge10" class="edge"><title>14330480&#45;&gt;14332112</title>
<path fill="none" stroke="black" d="M1680.42,-41.0954C1601.41,-149.832 1104.44,-833.856 986.078,-996.77"/>
<polygon fill="black" stroke="black" points="983.139,-994.86 980.093,-1005.01 988.802,-998.975 983.139,-994.86"/>
</g>
<!-- 14332880 -->
<g id="node2" class="node"><title>14332880</title>
<ellipse fill="lightgrey" stroke="black" cx="2872.55" cy="-410.401" rx="18" ry="18"/>
<text text-anchor="middle" x="2872.55" y="-406.701" font-family="Times,serif" font-size="14.00">14332880</text>
</g>
<!-- 14333328 -->
<g id="node8" class="node"><title>14333328</title>
<path fill="none" stroke="black" d="M3110.05,-1679.23C3110.05,-1679.23 2635.05,-1679.23 2635.05,-1679.23 2629.05,-1679.23 2623.05,-1673.23 2623.05,-1667.23 2623.05,-1667.23 2623.05,-1638.23 2623.05,-1638.23 2623.05,-1632.23 2629.05,-1626.23 2635.05,-1626.23 2635.05,-1626.23 3110.05,-1626.23 3110.05,-1626.23 3116.05,-1626.23 3122.05,-1632.23 3122.05,-1638.23 3122.05,-1638.23 3122.05,-1667.23 3122.05,-1667.23 3122.05,-1673.23 3116.05,-1679.23 3110.05,-1679.23"/>
<text text-anchor="middle" x="2872.55" y="-1664.03" font-family="Times,serif" font-size="14.00">intangible (qual) non_cognitive_symptoms || intangible (qual) challenging_behaviour &#45;&gt;</text>
<text text-anchor="middle" x="2872.55" y="-1649.03" font-family="Times,serif" font-size="14.00">non_medication_interventions</text>
<text text-anchor="middle" x="2872.55" y="-1634.03" font-family="Times,serif" font-size="14.00">&#45;&gt; early_assessment</text>
</g>
<!-- 14332880&#45;&gt;14333328 -->
<g id="edge11" class="edge"><title>14332880&#45;&gt;14333328</title>
<path fill="none" stroke="black" d="M2872.55,-428.442C2872.55,-564.257 2872.55,-1426.16 2872.55,-1615.84"/>
<polygon fill="black" stroke="black" points="2869.05,-1616.12 2872.55,-1626.12 2876.05,-1616.12 2869.05,-1616.12"/>
</g>
<!-- 14334224 -->
<g id="node9" class="node"><title>14334224</title>
<path fill="none" stroke="black" d="M2465.15,-53C2465.15,-53 2223.15,-53 2223.15,-53 2217.15,-53 2211.15,-47 2211.15,-41 2211.15,-41 2211.15,-12 2211.15,-12 2211.15,-6 2217.15,-1.1724e-13 2223.15,-1.1724e-13 2223.15,-1.1724e-13 2465.15,-1.1724e-13 2465.15,-1.1724e-13 2471.15,-1.1724e-13 2477.15,-6 2477.15,-12 2477.15,-12 2477.15,-41 2477.15,-41 2477.15,-47 2471.15,-53 2465.15,-53"/>
<text text-anchor="middle" x="2344.15" y="-37.8" font-family="Times,serif" font-size="14.00">intangible (qual) risk_of_harm_or_distress &#45;&gt;</text>
<text text-anchor="middle" x="2344.15" y="-22.8" font-family="Times,serif" font-size="14.00">medication_interventions</text>
<text text-anchor="middle" x="2344.15" y="-7.8" font-family="Times,serif" font-size="14.00">&#45;&gt; medication</text>
</g>
<!-- 14332880&#45;&gt;14334224 -->
<g id="edge12" class="edge"><title>14332880&#45;&gt;14334224</title>
<path fill="none" stroke="black" d="M2857.86,-399.733C2789.55,-350.103 2501.47,-140.795 2389.2,-59.2305"/>
<polygon fill="black" stroke="black" points="2390.94,-56.1673 2380.79,-53.1209 2386.83,-61.8304 2390.94,-56.1673"/>
</g>
<!-- 14330720 -->
<g id="node18" class="node"><title>14330720</title>
<ellipse fill="lightgrey" stroke="black" cx="1162.63" cy="-1652.73" rx="18" ry="18"/>
<text text-anchor="middle" x="1162.63" y="-1649.03" font-family="Times,serif" font-size="14.00">14330720</text>
</g>
<!-- 14331040&#45;&gt;14330720 -->
<g id="edge13" class="edge"><title>14331040&#45;&gt;14330720</title>
<path fill="none" stroke="black" d="M1162.63,-436.924C1162.63,-599.255 1162.63,-1457.21 1162.63,-1624.46"/>
<polygon fill="black" stroke="black" points="1159.13,-1624.67 1162.63,-1634.67 1166.13,-1624.67 1159.13,-1624.67"/>
</g>
<!-- 14332112&#45;&gt;14330720 -->
<g id="edge14" class="edge"><title>14332112&#45;&gt;14330720</title>
<path fill="none" stroke="black" d="M969.47,-1058.26C1002.55,-1160.07 1120.62,-1523.44 1153.86,-1625.75"/>
<polygon fill="black" stroke="black" points="1150.56,-1626.92 1156.98,-1635.35 1157.22,-1624.75 1150.56,-1626.92"/>
</g>
<!-- 14336880 -->
<g id="node5" class="node"><title>14336880</title>
<path fill="none" stroke="black" d="M335,-4275.67C335,-4275.67 12,-4275.67 12,-4275.67 6,-4275.67 -2.84217e-13,-4269.67 -2.84217e-13,-4263.67 -2.84217e-13,-4263.67 -2.84217e-13,-4234.67 -2.84217e-13,-4234.67 -2.84217e-13,-4228.67 6,-4222.67 12,-4222.67 12,-4222.67 335,-4222.67 335,-4222.67 341,-4222.67 347,-4228.67 347,-4234.67 347,-4234.67 347,-4263.67 347,-4263.67 347,-4269.67 341,-4275.67 335,-4275.67"/>
<text text-anchor="middle" x="173.5" y="-4260.47" font-family="Times,serif" font-size="14.00">[] &#45;&gt;</text>
<text text-anchor="middle" x="173.5" y="-4245.47" font-family="Times,serif" font-size="14.00">record_changes</text>
<text text-anchor="middle" x="173.5" y="-4230.47" font-family="Times,serif" font-size="14.00">&#45;&gt; patient_record.symptoms &amp;&amp; optional (qual) medication</text>
</g>
<!-- 14336880&#45;&gt;14336880 -->
<g id="edge23" class="edge"><title>14336880&#45;&gt;14336880</title>
<path fill="none" stroke="black" d="M347.001,-4253.96C358.219,-4252.84 365,-4251.25 365,-4249.17 365,-4247.84 362.217,-4246.71 357.267,-4245.77"/>
<polygon fill="black" stroke="black" points="357.38,-4242.26 347.001,-4244.38 356.441,-4249.19 357.38,-4242.26"/>
</g>
<!-- 14336576 -->
<g id="node24" class="node"><title>14336576</title>
<ellipse fill="lightgrey" stroke="black" cx="782.831" cy="-4831.75" rx="18" ry="18"/>
<text text-anchor="middle" x="782.831" y="-4828.05" font-family="Times,serif" font-size="14.00">14336576</text>
</g>
<!-- 14336880&#45;&gt;14336576 -->
<g id="edge24" class="edge"><title>14336880&#45;&gt;14336576</title>
<path fill="none" stroke="black" d="M201.265,-4275.72C305.328,-4375.21 670.92,-4724.75 762.106,-4811.94"/>
<polygon fill="black" stroke="black" points="759.72,-4814.5 769.367,-4818.88 764.558,-4809.44 759.72,-4814.5"/>
</g>
<!-- 14337584 -->
<g id="node6" class="node"><title>14337584</title>
<path fill="none" stroke="black" d="M2155.61,-4021.4C2155.61,-4021.4 1945.61,-4021.4 1945.61,-4021.4 1939.61,-4021.4 1933.61,-4015.4 1933.61,-4009.4 1933.61,-4009.4 1933.61,-3980.4 1933.61,-3980.4 1933.61,-3974.4 1939.61,-3968.4 1945.61,-3968.4 1945.61,-3968.4 2155.61,-3968.4 2155.61,-3968.4 2161.61,-3968.4 2167.61,-3974.4 2167.61,-3980.4 2167.61,-3980.4 2167.61,-4009.4 2167.61,-4009.4 2167.61,-4015.4 2161.61,-4021.4 2155.61,-4021.4"/>
<text text-anchor="middle" x="2050.61" y="-4006.2" font-family="Times,serif" font-size="14.00">[] &#45;&gt;</text>
<text text-anchor="middle" x="2050.61" y="-3991.2" font-family="Times,serif" font-size="14.00">monitor_patients_on_medication</text>
<text text-anchor="middle" x="2050.61" y="-3976.2" font-family="Times,serif" font-size="14.00">&#45;&gt; optional (qual) care_plan.medication</text>
</g>
<!-- 14338160 -->
<g id="node25" class="node"><title>14338160</title>
<path fill="none" stroke="black" d="M1986.72,-4745.09C1986.72,-4745.09 1249.72,-4745.09 1249.72,-4745.09 1243.72,-4745.09 1237.72,-4739.09 1237.72,-4733.09 1237.72,-4733.09 1237.72,-4704.09 1237.72,-4704.09 1237.72,-4698.09 1243.72,-4692.09 1249.72,-4692.09 1249.72,-4692.09 1986.72,-4692.09 1986.72,-4692.09 1992.72,-4692.09 1998.72,-4698.09 1998.72,-4704.09 1998.72,-4704.09 1998.72,-4733.09 1998.72,-4733.09 1998.72,-4739.09 1992.72,-4745.09 1986.72,-4745.09"/>
<text text-anchor="middle" x="1618.22" y="-4729.89" font-family="Times,serif" font-size="14.00">patient_record.disability || patient_record.sensory_impairment || patient_record.lingustic_problems || patient_record.speech_problems &#45;&gt;</text>
<text text-anchor="middle" x="1618.22" y="-4714.89" font-family="Times,serif" font-size="14.00">consider_alt_assessments</text>
<text text-anchor="middle" x="1618.22" y="-4699.89" font-family="Times,serif" font-size="14.00">&#45;&gt; care_plan.alternative_assessment_method</text>
</g>
<!-- 14337584&#45;&gt;14338160 -->
<g id="edge25" class="edge"><title>14337584&#45;&gt;14338160</title>
<path fill="none" stroke="black" d="M2031.22,-4021.82C1958.72,-4133.14 1705.17,-4557.35 1635.79,-4683.21"/>
<polygon fill="black" stroke="black" points="1632.66,-4681.64 1630.93,-4692.09 1638.8,-4685 1632.66,-4681.64"/>
</g>
<!-- 14339472 -->
<g id="node7" class="node"><title>14339472</title>
<path fill="none" stroke="black" d="M1340.63,-2971.63C1340.63,-2971.63 564.63,-2971.63 564.63,-2971.63 558.63,-2971.63 552.63,-2965.63 552.63,-2959.63 552.63,-2959.63 552.63,-2930.63 552.63,-2930.63 552.63,-2924.63 558.63,-2918.63 564.63,-2918.63 564.63,-2918.63 1340.63,-2918.63 1340.63,-2918.63 1346.63,-2918.63 1352.63,-2924.63 1352.63,-2930.63 1352.63,-2930.63 1352.63,-2959.63 1352.63,-2959.63 1352.63,-2965.63 1346.63,-2971.63 1340.63,-2971.63"/>
<text text-anchor="middle" x="952.63" y="-2956.43" font-family="Times,serif" font-size="14.00">[] &#45;&gt;</text>
<text text-anchor="middle" x="952.63" y="-2941.43" font-family="Times,serif" font-size="14.00">manage_comorbidity</text>
<text text-anchor="middle" x="952.63" y="-2926.43" font-family="Times,serif" font-size="14.00">&#45;&gt; comorbidity.depression &amp;&amp; comorbidity.psychosis &amp;&amp; comorbidity.delirium &amp;&amp; comorbidity.parkinsons_disease &amp;&amp; comorbidity.stroke</text>
</g>
<!-- 14341312 -->
<g id="node26" class="node"><title>14341312</title>
<path fill="none" stroke="black" d="M379.568,-3436.05C379.568,-3436.05 118.568,-3436.05 118.568,-3436.05 112.568,-3436.05 106.568,-3430.05 106.568,-3424.05 106.568,-3424.05 106.568,-3395.05 106.568,-3395.05 106.568,-3389.05 112.568,-3383.05 118.568,-3383.05 118.568,-3383.05 379.568,-3383.05 379.568,-3383.05 385.568,-3383.05 391.568,-3389.05 391.568,-3395.05 391.568,-3395.05 391.568,-3424.05 391.568,-3424.05 391.568,-3430.05 385.568,-3436.05 379.568,-3436.05"/>
<text text-anchor="middle" x="249.068" y="-3420.85" font-family="Times,serif" font-size="14.00">comorbidity.depression || comorbidity.anxiety &#45;&gt;</text>
<text text-anchor="middle" x="249.068" y="-3405.85" font-family="Times,serif" font-size="14.00">psychosocial_interventions</text>
<text text-anchor="middle" x="249.068" y="-3390.85" font-family="Times,serif" font-size="14.00">&#45;&gt; []</text>
</g>
<!-- 14339472&#45;&gt;14341312 -->
<g id="edge26" class="edge"><title>14339472&#45;&gt;14341312</title>
<path fill="none" stroke="black" d="M905.881,-2971.78C776.721,-3051.87 416.474,-3289.66 291.998,-3376.99"/>
<polygon fill="black" stroke="black" points="289.956,-3374.15 283.797,-3382.77 293.988,-3379.87 289.956,-3374.15"/>
</g>
<!-- 14333056 -->
<g id="node28" class="node"><title>14333056</title>
<ellipse fill="lightgrey" stroke="black" cx="2344.15" cy="-2036.63" rx="18" ry="18"/>
<text text-anchor="middle" x="2344.15" y="-2032.93" font-family="Times,serif" font-size="14.00">14333056</text>
</g>
<!-- 14333328&#45;&gt;14333056 -->
<g id="edge32" class="edge"><title>14333328&#45;&gt;14333056</title>
<path fill="none" stroke="black" d="M2835.81,-1679.42C2733.97,-1753.41 2450.1,-1959.65 2367.18,-2019.9"/>
<polygon fill="black" stroke="black" points="2364.96,-2017.18 2358.93,-2025.89 2369.08,-2022.85 2364.96,-2017.18"/>
</g>
<!-- 14334224&#45;&gt;14333056 -->
<g id="edge33" class="edge"><title>14334224&#45;&gt;14333056</title>
<path fill="none" stroke="black" d="M2344.15,-53.022C2344.15,-272.271 2344.15,-1782.48 2344.15,-2008.38"/>
<polygon fill="black" stroke="black" points="2340.65,-2008.44 2344.15,-2018.44 2347.65,-2008.44 2340.65,-2008.44"/>
</g>
<!-- process -->
<g id="node10" class="node"><title>process</title>
<text text-anchor="middle" x="2296.59" y="-2624.87" font-family="Times,serif" font-size="14.00">/tmp/tmpGPMk00</text>
</g>
<!-- 14324544 -->
<g id="node11" class="node"><title>14324544</title>
<polygon fill="none" stroke="black" points="4822.37,-1049.57 4768.37,-1049.57 4768.37,-1013.57 4822.37,-1013.57 4822.37,-1049.57"/>
<text text-anchor="middle" x="4795.37" y="-1027.87" font-family="Times,serif" font-size="14.00">start</text>
</g>
<!-- 14325104 -->
<g id="node12" class="node"><title>14325104</title>
<path fill="none" stroke="black" d="M4684.37,-1058.07C4684.37,-1058.07 4457.37,-1058.07 4457.37,-1058.07 4451.37,-1058.07 4445.37,-1052.07 4445.37,-1046.07 4445.37,-1046.07 4445.37,-1017.07 4445.37,-1017.07 4445.37,-1011.07 4451.37,-1005.07 4457.37,-1005.07 4457.37,-1005.07 4684.37,-1005.07 4684.37,-1005.07 4690.37,-1005.07 4696.37,-1011.07 4696.37,-1017.07 4696.37,-1017.07 4696.37,-1046.07 4696.37,-1046.07 4696.37,-1052.07 4690.37,-1058.07 4684.37,-1058.07"/>
<text text-anchor="middle" x="4570.87" y="-1042.87" font-family="Times,serif" font-size="14.00">Guidelines_For_Treatment_Of_Patients &#45;&gt;</text>
<text text-anchor="middle" x="4570.87" y="-1027.87" font-family="Times,serif" font-size="14.00">identify_causal_or_exacerbating_factors</text>
<text text-anchor="middle" x="4570.87" y="-1012.87" font-family="Times,serif" font-size="14.00">&#45;&gt; []</text>
</g>
<!-- 14324544&#45;&gt;14325104 -->
<g id="edge1" class="edge"><title>14324544&#45;&gt;14325104</title>
<path fill="none" stroke="black" d="M4768.29,-1031.57C4752.07,-1031.57 4730.09,-1031.57 4706.67,-1031.57"/>
<polygon fill="black" stroke="black" points="4706.56,-1028.07 4696.56,-1031.57 4706.56,-1035.07 4706.56,-1028.07"/>
</g>
<!-- 14325568 -->
<g id="node13" class="node"><title>14325568</title>
<path fill="none" stroke="black" d="M4361.37,-1058.07C4361.37,-1058.07 3898.37,-1058.07 3898.37,-1058.07 3892.37,-1058.07 3886.37,-1052.07 3886.37,-1046.07 3886.37,-1046.07 3886.37,-1017.07 3886.37,-1017.07 3886.37,-1011.07 3892.37,-1005.07 3898.37,-1005.07 3898.37,-1005.07 4361.37,-1005.07 4361.37,-1005.07 4367.37,-1005.07 4373.37,-1011.07 4373.37,-1017.07 4373.37,-1017.07 4373.37,-1046.07 4373.37,-1046.07 4373.37,-1052.07 4367.37,-1058.07 4361.37,-1058.07"/>
<text text-anchor="middle" x="4129.87" y="-1042.87" font-family="Times,serif" font-size="14.00">patient_record.Confirmed_Dementia &amp;&amp; patient_record.requests_privacy == false &#45;&gt;</text>
<text text-anchor="middle" x="4129.87" y="-1027.87" font-family="Times,serif" font-size="14.00">provide_patient_carer_with_information</text>
<text text-anchor="middle" x="4129.87" y="-1012.87" font-family="Times,serif" font-size="14.00">&#45;&gt; information_to_carer</text>
</g>
<!-- 14325104&#45;&gt;14325568 -->
<g id="edge2" class="edge"><title>14325104&#45;&gt;14325568</title>
<path fill="none" stroke="black" d="M4445.09,-1031.57C4425.53,-1031.57 4404.74,-1031.57 4383.54,-1031.57"/>
<polygon fill="black" stroke="black" points="4383.43,-1028.07 4373.43,-1031.57 4383.43,-1035.07 4383.43,-1028.07"/>
</g>
<!-- 14327008 -->
<g id="node14" class="node"><title>14327008</title>
<path fill="none" stroke="black" d="M3802.37,-1058.07C3802.37,-1058.07 3641.37,-1058.07 3641.37,-1058.07 3635.37,-1058.07 3629.37,-1052.07 3629.37,-1046.07 3629.37,-1046.07 3629.37,-1017.07 3629.37,-1017.07 3629.37,-1011.07 3635.37,-1005.07 3641.37,-1005.07 3641.37,-1005.07 3802.37,-1005.07 3802.37,-1005.07 3808.37,-1005.07 3814.37,-1011.07 3814.37,-1017.07 3814.37,-1017.07 3814.37,-1046.07 3814.37,-1046.07 3814.37,-1052.07 3808.37,-1058.07 3802.37,-1058.07"/>
<text text-anchor="middle" x="3721.87" y="-1042.87" font-family="Times,serif" font-size="14.00">patient_history &#45;&gt;</text>
<text text-anchor="middle" x="3721.87" y="-1027.87" font-family="Times,serif" font-size="14.00">create_treatment_or_care_plan</text>
<text text-anchor="middle" x="3721.87" y="-1012.87" font-family="Times,serif" font-size="14.00">&#45;&gt; care_plan</text>
</g>
<!-- 14325568&#45;&gt;14327008 -->
<g id="edge3" class="edge"><title>14325568&#45;&gt;14327008</title>
<path fill="none" stroke="black" d="M3886.35,-1031.57C3864.83,-1031.57 3843.92,-1031.57 3824.62,-1031.57"/>
<polygon fill="black" stroke="black" points="3824.38,-1028.07 3814.38,-1031.57 3824.38,-1035.07 3824.38,-1028.07"/>
</g>
<!-- 14328704 -->
<g id="node15" class="node"><title>14328704</title>
<path fill="none" stroke="black" d="M3545.37,-1058.07C3545.37,-1058.07 3385.37,-1058.07 3385.37,-1058.07 3379.37,-1058.07 3373.37,-1052.07 3373.37,-1046.07 3373.37,-1046.07 3373.37,-1017.07 3373.37,-1017.07 3373.37,-1011.07 3379.37,-1005.07 3385.37,-1005.07 3385.37,-1005.07 3545.37,-1005.07 3545.37,-1005.07 3551.37,-1005.07 3557.37,-1011.07 3557.37,-1017.07 3557.37,-1017.07 3557.37,-1046.07 3557.37,-1046.07 3557.37,-1052.07 3551.37,-1058.07 3545.37,-1058.07"/>
<text text-anchor="middle" x="3465.37" y="-1042.87" font-family="Times,serif" font-size="14.00">care_plan &#45;&gt;</text>
<text text-anchor="middle" x="3465.37" y="-1027.87" font-family="Times,serif" font-size="14.00">formal_review_of_care_plan</text>
<text text-anchor="middle" x="3465.37" y="-1012.87" font-family="Times,serif" font-size="14.00">&#45;&gt; care_plan.reviewed == true</text>
</g>
<!-- 14327008&#45;&gt;14328704 -->
<g id="edge4" class="edge"><title>14327008&#45;&gt;14328704</title>
<path fill="none" stroke="black" d="M3629.27,-1031.57C3609.26,-1031.57 3588,-1031.57 3567.64,-1031.57"/>
<polygon fill="black" stroke="black" points="3567.41,-1028.07 3557.41,-1031.57 3567.41,-1035.07 3567.41,-1028.07"/>
</g>
<!-- 14329472 -->
<g id="node16" class="node"><title>14329472</title>
<path fill="none" stroke="black" d="M3289.37,-1058.07C3289.37,-1058.07 3158.37,-1058.07 3158.37,-1058.07 3152.37,-1058.07 3146.37,-1052.07 3146.37,-1046.07 3146.37,-1046.07 3146.37,-1017.07 3146.37,-1017.07 3146.37,-1011.07 3152.37,-1005.07 3158.37,-1005.07 3158.37,-1005.07 3289.37,-1005.07 3289.37,-1005.07 3295.37,-1005.07 3301.37,-1011.07 3301.37,-1017.07 3301.37,-1017.07 3301.37,-1046.07 3301.37,-1046.07 3301.37,-1052.07 3295.37,-1058.07 3289.37,-1058.07"/>
<text text-anchor="middle" x="3223.87" y="-1042.87" font-family="Times,serif" font-size="14.00">[] &#45;&gt;</text>
<text text-anchor="middle" x="3223.87" y="-1027.87" font-family="Times,serif" font-size="14.00">assess_carer_needs</text>
<text text-anchor="middle" x="3223.87" y="-1012.87" font-family="Times,serif" font-size="14.00">&#45;&gt; care_plan.respite_care</text>
</g>
<!-- 14328704&#45;&gt;14329472 -->
<g id="edge5" class="edge"><title>14328704&#45;&gt;14329472</title>
<path fill="none" stroke="black" d="M3373.04,-1031.57C3352.88,-1031.57 3331.6,-1031.57 3311.62,-1031.57"/>
<polygon fill="black" stroke="black" points="3311.62,-1028.07 3301.62,-1031.57 3311.62,-1035.07 3311.62,-1028.07"/>
</g>
<!-- 14329968 -->
<g id="node17" class="node"><title>14329968</title>
<ellipse fill="lightgrey" stroke="black" cx="3074.37" cy="-1031.57" rx="18" ry="18"/>
<text text-anchor="middle" x="3074.37" y="-1027.87" font-family="Times,serif" font-size="14.00">14329968</text>
</g>
<!-- 14329472&#45;&gt;14329968 -->
<g id="edge6" class="edge"><title>14329472&#45;&gt;14329968</title>
<path fill="none" stroke="black" d="M3146.06,-1031.57C3130.59,-1031.57 3115.29,-1031.57 3102.82,-1031.57"/>
<polygon fill="black" stroke="black" points="3102.66,-1028.07 3092.66,-1031.57 3102.66,-1035.07 3102.66,-1028.07"/>
</g>
<!-- 14329968&#45;&gt;14330480 -->
<g id="edge7" class="edge"><title>14329968&#45;&gt;14330480</title>
<path fill="none" stroke="black" d="M3059.78,-1020.96C2923.89,-922.233 1881.54,-164.918 1713.78,-43.0334"/>
<polygon fill="black" stroke="black" points="1715.77,-40.155 1705.62,-37.1086 1711.65,-45.8181 1715.77,-40.155"/>
</g>
<!-- 14329968&#45;&gt;14332880 -->
<g id="edge8" class="edge"><title>14329968&#45;&gt;14332880</title>
<path fill="none" stroke="black" d="M3068.77,-1014.3C3040.7,-927.928 2915.51,-542.625 2881.24,-437.163"/>
<polygon fill="black" stroke="black" points="2884.55,-436.008 2878.13,-427.579 2877.89,-438.172 2884.55,-436.008"/>
</g>
<!-- 14330176 -->
<g id="node19" class="node"><title>14330176</title>
<ellipse fill="lightgrey" stroke="black" cx="1691.02" cy="-2036.63" rx="18" ry="18"/>
<text text-anchor="middle" x="1691.02" y="-2032.93" font-family="Times,serif" font-size="14.00">14330176</text>
</g>
<!-- 14330720&#45;&gt;14330176 -->
<g id="edge15" class="edge"><title>14330720&#45;&gt;14330176</title>
<path fill="none" stroke="black" d="M1177.31,-1663.4C1250.79,-1716.78 1578.54,-1954.91 1668.26,-2020.09"/>
<polygon fill="black" stroke="black" points="1666.26,-2022.97 1676.41,-2026.01 1670.37,-2017.31 1666.26,-2022.97"/>
</g>
<!-- 14334736 -->
<g id="node20" class="node"><title>14334736</title>
<path fill="none" stroke="black" d="M1736.58,-2241.45C1736.58,-2241.45 1529.58,-2241.45 1529.58,-2241.45 1523.58,-2241.45 1517.58,-2235.45 1517.58,-2229.45 1517.58,-2229.45 1517.58,-2200.45 1517.58,-2200.45 1517.58,-2194.45 1523.58,-2188.45 1529.58,-2188.45 1529.58,-2188.45 1736.58,-2188.45 1736.58,-2188.45 1742.58,-2188.45 1748.58,-2194.45 1748.58,-2200.45 1748.58,-2200.45 1748.58,-2229.45 1748.58,-2229.45 1748.58,-2235.45 1742.58,-2241.45 1736.58,-2241.45"/>
<text text-anchor="middle" x="1633.08" y="-2226.25" font-family="Times,serif" font-size="14.00">[] &#45;&gt;</text>
<text text-anchor="middle" x="1633.08" y="-2211.25" font-family="Times,serif" font-size="14.00">obtain_carers_view</text>
<text text-anchor="middle" x="1633.08" y="-2196.25" font-family="Times,serif" font-size="14.00">&#45;&gt; intangible (qual) view_on_condition</text>
</g>
<!-- 14330176&#45;&gt;14334736 -->
<g id="edge16" class="edge"><title>14330176&#45;&gt;14334736</title>
<path fill="none" stroke="black" d="M1685.36,-2054.05C1676.03,-2082.78 1657.22,-2140.65 1644.9,-2178.59"/>
<polygon fill="black" stroke="black" points="1641.52,-2177.65 1641.76,-2188.25 1648.18,-2179.82 1641.52,-2177.65"/>
</g>
<!-- 14335168 -->
<g id="node21" class="node"><title>14335168</title>
<path fill="none" stroke="black" d="M1622.56,-2501.57C1622.56,-2501.57 1474.56,-2501.57 1474.56,-2501.57 1468.56,-2501.57 1462.56,-2495.57 1462.56,-2489.57 1462.56,-2489.57 1462.56,-2460.57 1462.56,-2460.57 1462.56,-2454.57 1468.56,-2448.57 1474.56,-2448.57 1474.56,-2448.57 1622.56,-2448.57 1622.56,-2448.57 1628.56,-2448.57 1634.56,-2454.57 1634.56,-2460.57 1634.56,-2460.57 1634.56,-2489.57 1634.56,-2489.57 1634.56,-2495.57 1628.56,-2501.57 1622.56,-2501.57"/>
<text text-anchor="middle" x="1548.56" y="-2486.37" font-family="Times,serif" font-size="14.00">[] &#45;&gt;</text>
<text text-anchor="middle" x="1548.56" y="-2471.37" font-family="Times,serif" font-size="14.00">document_symptoms</text>
<text text-anchor="middle" x="1548.56" y="-2456.37" font-family="Times,serif" font-size="14.00">&#45;&gt; patient_record.symptoms</text>
</g>
<!-- 14334736&#45;&gt;14335168 -->
<g id="edge17" class="edge"><title>14334736&#45;&gt;14335168</title>
<path fill="none" stroke="black" d="M1624.35,-2241.81C1609.1,-2288.76 1577.57,-2385.78 1560.38,-2438.7"/>
<polygon fill="black" stroke="black" points="1557,-2437.77 1557.24,-2448.36 1563.66,-2439.93 1557,-2437.77"/>
</g>
<!-- 14335712 -->
<g id="node22" class="node"><title>14335712</title>
<path fill="none" stroke="black" d="M1593.11,-2796.87C1593.11,-2796.87 1312.11,-2796.87 1312.11,-2796.87 1306.11,-2796.87 1300.11,-2790.87 1300.11,-2784.87 1300.11,-2784.87 1300.11,-2755.87 1300.11,-2755.87 1300.11,-2749.87 1306.11,-2743.87 1312.11,-2743.87 1312.11,-2743.87 1593.11,-2743.87 1593.11,-2743.87 1599.11,-2743.87 1605.11,-2749.87 1605.11,-2755.87 1605.11,-2755.87 1605.11,-2784.87 1605.11,-2784.87 1605.11,-2790.87 1599.11,-2796.87 1593.11,-2796.87"/>
<text text-anchor="middle" x="1452.61" y="-2781.67" font-family="Times,serif" font-size="14.00">intangible (qual) risk_of_behavioural_disturbance &#45;&gt;</text>
<text text-anchor="middle" x="1452.61" y="-2766.67" font-family="Times,serif" font-size="14.00">assess_behavioural_disturbances</text>
<text text-anchor="middle" x="1452.61" y="-2751.67" font-family="Times,serif" font-size="14.00">&#45;&gt; care_plan.appropriate_setting</text>
</g>
<!-- 14335168&#45;&gt;14335712 -->
<g id="edge18" class="edge"><title>14335168&#45;&gt;14335712</title>
<path fill="none" stroke="black" d="M1539.88,-2501.8C1522.65,-2554.81 1484.14,-2673.35 1464.55,-2733.64"/>
<polygon fill="black" stroke="black" points="1461.11,-2732.9 1461.35,-2743.49 1467.77,-2735.06 1461.11,-2732.9"/>
</g>
<!-- 14336368 -->
<g id="node23" class="node"><title>14336368</title>
<ellipse fill="lightgrey" stroke="black" cx="1754.39" cy="-3205.64" rx="18" ry="18"/>
<text text-anchor="middle" x="1754.39" y="-3201.94" font-family="Times,serif" font-size="14.00">14336368</text>
</g>
<!-- 14335712&#45;&gt;14336368 -->
<g id="edge19" class="edge"><title>14335712&#45;&gt;14336368</title>
<path fill="none" stroke="black" d="M1471.04,-2796.94C1525.76,-2875.87 1686.72,-3108.04 1738.3,-3182.42"/>
<polygon fill="black" stroke="black" points="1735.45,-3184.47 1744.03,-3190.69 1741.21,-3180.48 1735.45,-3184.47"/>
</g>
<!-- 14336368&#45;&gt;14336880 -->
<g id="edge20" class="edge"><title>14336368&#45;&gt;14336880</title>
<path fill="none" stroke="black" d="M1739.25,-3215.63C1595.52,-3310.5 471.416,-4052.52 222.287,-4216.97"/>
<polygon fill="black" stroke="black" points="220.214,-4214.14 213.796,-4222.57 224.07,-4219.98 220.214,-4214.14"/>
</g>
<!-- 14336368&#45;&gt;14337584 -->
<g id="edge21" class="edge"><title>14336368&#45;&gt;14337584</title>
<path fill="none" stroke="black" d="M1760.85,-3222.86C1798.03,-3321.92 1984.85,-3819.69 2037.04,-3958.76"/>
<polygon fill="black" stroke="black" points="2033.77,-3960.01 2040.56,-3968.14 2040.33,-3957.55 2033.77,-3960.01"/>
</g>
<!-- 14336368&#45;&gt;14339472 -->
<g id="edge22" class="edge"><title>14336368&#45;&gt;14339472</title>
<path fill="none" stroke="black" d="M1736.9,-3199.95C1646.64,-3170.63 1230.57,-3035.44 1043.81,-2974.76"/>
<polygon fill="black" stroke="black" points="1044.87,-2971.42 1034.28,-2971.66 1042.71,-2978.08 1044.87,-2971.42"/>
</g>
<!-- 14324784 -->
<g id="node27" class="node"><title>14324784</title>
<polygon fill="none" stroke="black" points="779.238,-4943.91 725.238,-4943.91 725.238,-4907.91 779.238,-4907.91 779.238,-4943.91"/>
<text text-anchor="middle" x="752.238" y="-4922.21" font-family="Times,serif" font-size="14.00">end</text>
</g>
<!-- 14336576&#45;&gt;14324784 -->
<g id="edge27" class="edge"><title>14336576&#45;&gt;14324784</title>
<path fill="none" stroke="black" d="M777.22,-4849.02C772.776,-4862.7 766.481,-4882.07 761.322,-4897.95"/>
<polygon fill="black" stroke="black" points="757.888,-4897.19 758.126,-4907.78 764.545,-4899.36 757.888,-4897.19"/>
</g>
<!-- 14338160&#45;&gt;14337584 -->
<g id="edge28" class="edge"><title>14338160&#45;&gt;14337584</title>
<path fill="none" stroke="black" d="M1637.6,-4691.67C1710.11,-4580.35 1963.65,-4156.14 2033.04,-4030.28"/>
<polygon fill="black" stroke="black" points="2036.17,-4031.86 2037.9,-4021.4 2030.03,-4028.5 2036.17,-4031.86"/>
</g>
<!-- 14338160&#45;&gt;14336576 -->
<g id="edge29" class="edge"><title>14338160&#45;&gt;14336576</title>
<path fill="none" stroke="black" d="M1422.36,-4745.12C1215,-4773.21 904.887,-4815.22 810.847,-4827.96"/>
<polygon fill="black" stroke="black" points="810.152,-4824.52 800.713,-4829.33 811.092,-4831.46 810.152,-4824.52"/>
</g>
<!-- 14341312&#45;&gt;14339472 -->
<g id="edge30" class="edge"><title>14341312&#45;&gt;14339472</title>
<path fill="none" stroke="black" d="M295.816,-3382.9C424.977,-3302.81 785.224,-3065.01 909.699,-2977.68"/>
<polygon fill="black" stroke="black" points="911.741,-2980.52 917.9,-2971.9 907.71,-2974.8 911.741,-2980.52"/>
</g>
<!-- 14341312&#45;&gt;14336576 -->
<g id="edge31" class="edge"><title>14341312&#45;&gt;14336576</title>
<path fill="none" stroke="black" d="M259.02,-3436.06C325.625,-3613.53 706.032,-4627.12 772.82,-4805.08"/>
<polygon fill="black" stroke="black" points="769.643,-4806.57 776.434,-4814.71 776.197,-4804.11 769.643,-4806.57"/>
</g>
<!-- 14333056&#45;&gt;14330176 -->
<g id="edge34" class="edge"><title>14333056&#45;&gt;14330176</title>
<path fill="none" stroke="black" d="M2326,-2036.63C2235.18,-2036.63 1830.05,-2036.63 1719.16,-2036.63"/>
<polygon fill="black" stroke="black" points="1719.08,-2033.13 1709.08,-2036.63 1719.08,-2040.13 1719.08,-2033.13"/>
</g>
</g>
</svg>
